<svg id="Capa_1" enable-background="new 0 0 512 512" height="512" viewBox="0 0 512 512" width="512" xmlns="http://www.w3.org/2000/svg"><g><g><g><g><g><g><g><g><g><circle cx="256" cy="256" fill="#ffce00" r="256"/></g></g></g></g></g></g></g></g><path d="m512 256c0-21.588-2.672-42.552-7.704-62.579l-75.857-75.857-344.878 244.995 148.319 148.319c7.94.742 15.986 1.122 24.12 1.122 141.385 0 256-114.615 256-256z" fill="#ffa300"/><g><path d="m203.222 335.251h105.556v75.584h-105.556z" fill="#707789"/></g><g><path d="m256.121 335.251h52.658v75.583h-52.658z" fill="#555a66"/></g><g><path d="m83.561 117.564h344.878v244.995h-344.878z" fill="#555a66"/></g><g><path d="m256.121 117.564h172.318v244.995h-172.318z" fill="#333940"/></g><g><path d="m220.581 144.872h178.723v190.379h-178.723z" fill="#fff"/></g><g><path d="m256.121 144.872h143.184v190.379h-143.184z" fill="#e9edf5"/></g><g><path d="m112.695 144.872h118.192v190.379h-118.192z" fill="#bec3d2"/></g><g><path d="m177.426 389.926h157.147v44.074h-157.147z" fill="#555a66"/></g><g><path d="m256.121 389.926h78.453v44.074h-78.453z" fill="#333940"/></g><g><path d="m336.991 284.574-18.052 12.063-18.052-12.063c-15.218-10.169-24.354-27.264-24.354-45.567v-38.598l42.406-16.922 42.406 16.922v38.598c0 18.303-9.136 35.397-24.354 45.567z" fill="#ffce00"/></g><g><path d="m318.939 183.487v113.15l18.052-12.063c15.218-10.169 24.354-27.264 24.354-45.567v-38.598z" fill="#fdba12"/></g><g><path d="m133.189 172.297h77.204v31.276h-77.204z" fill="#7e8596"/></g><g><path d="m133.189 276.55h77.204v31.276h-77.204z" fill="#7e8596"/></g><g><path d="m133.189 224.424h77.204v31.276h-77.204z" fill="#7e8596"/></g></g></svg>