<svg id="svg" version="1.1" xmlns="http://www.w3.org/2000/svg" xmlns:xlink="http://www.w3.org/1999/xlink" width="400" height="400" viewBox="0, 0, 400,400"><g id="svgg"><path id="path0" d="M23.711 69.183 C 23.170 69.687,22.291 70.000,21.417 70.000 C 20.638 70.000,20.000 70.180,20.000 70.400 C 20.000 70.620,19.640 70.800,19.200 70.800 C 18.760 70.800,18.400 70.980,18.400 71.200 C 18.400 71.420,18.051 71.600,17.624 71.600 C 17.197 71.600,16.736 71.780,16.600 72.000 C 16.464 72.220,15.926 72.400,15.403 72.400 C 14.805 72.400,14.360 72.696,14.200 73.200 C 14.060 73.640,13.688 74.000,13.373 74.000 C 11.279 74.000,16.065 78.048,22.123 81.400 C 22.520 81.620,27.380 84.760,32.923 88.378 C 38.465 91.996,45.025 96.271,47.500 97.878 C 49.975 99.485,54.025 102.118,56.500 103.729 C 58.975 105.340,62.796 107.815,64.991 109.229 C 67.186 110.643,72.438 114.050,76.663 116.800 C 86.059 122.916,101.546 132.977,117.000 143.004 C 147.832 163.007,150.783 164.954,150.792 165.300 C 150.796 165.465,145.318 165.600,138.619 165.600 L 126.437 165.600 116.519 159.135 C 111.063 155.579,102.460 149.971,97.400 146.674 C 92.340 143.376,87.300 140.107,86.200 139.409 C 85.100 138.711,80.600 135.795,76.200 132.929 C 71.800 130.063,66.940 126.909,65.400 125.919 C 59.941 122.409,54.141 118.627,49.594 115.612 C 47.060 113.932,44.720 112.438,44.394 112.293 C 44.067 112.147,39.840 109.408,35.000 106.206 C 30.160 103.004,25.030 99.664,23.600 98.784 C 22.170 97.903,17.041 94.590,12.203 91.421 C 3.028 85.411,2.000 85.028,2.000 87.619 C 2.000 87.868,1.595 88.410,1.100 88.823 C 0.605 89.236,0.425 89.579,0.700 89.587 C 1.289 89.602,1.388 91.200,0.800 91.200 C 0.358 91.200,0.262 92.775,0.643 93.767 C 0.776 94.115,1.040 94.400,1.228 94.400 C 1.417 94.400,8.012 98.635,15.885 103.811 C 23.758 108.987,30.470 113.393,30.800 113.602 C 32.097 114.422,53.230 128.277,64.402 135.631 C 70.893 139.904,76.698 143.655,77.302 143.968 C 77.906 144.280,78.400 144.685,78.400 144.868 C 78.400 145.050,78.573 145.200,78.784 145.200 C 79.091 145.200,108.507 164.419,109.188 165.065 C 110.040 165.873,103.178 165.988,54.100 165.994 L 0.000 166.000 0.000 172.600 L 0.000 179.200 89.600 179.200 L 179.200 179.200 179.200 123.800 L 179.200 68.400 172.600 68.400 L 166.000 68.400 165.995 109.500 C 165.989 150.148,165.940 152.408,165.053 152.392 C 164.633 152.385,151.197 143.780,150.117 142.827 C 149.851 142.592,149.543 142.400,149.433 142.400 C 149.322 142.400,142.554 137.990,134.392 132.600 C 126.230 127.210,119.383 122.800,119.176 122.800 C 118.969 122.800,118.800 122.659,118.800 122.486 C 118.800 122.314,118.215 121.836,117.500 121.426 C 115.850 120.478,103.274 112.268,85.682 100.655 C 78.137 95.675,71.820 91.600,71.644 91.600 C 71.468 91.600,70.998 91.240,70.600 90.800 C 70.202 90.360,69.735 90.000,69.562 90.000 C 69.132 90.000,39.683 70.600,38.259 69.379 C 37.040 68.333,29.200 67.832,29.200 68.800 C 29.200 69.334,24.906 69.317,24.728 68.783 C 24.651 68.553,24.194 68.733,23.711 69.183 M221.043 69.033 C 220.909 69.381,220.800 94.311,220.800 124.433 L 220.800 179.200 310.400 179.200 L 400.000 179.200 400.000 172.600 L 400.000 166.000 345.900 165.994 C 296.865 165.988,289.950 165.872,290.812 165.068 C 291.291 164.620,319.529 146.134,320.493 145.636 C 321.095 145.326,321.942 144.741,322.377 144.336 C 322.811 143.931,323.258 143.600,323.370 143.600 C 323.483 143.600,330.603 138.965,339.193 133.300 C 347.783 127.635,357.861 121.020,361.590 118.600 C 365.319 116.180,375.131 109.745,383.395 104.300 C 391.659 98.855,398.577 94.400,398.767 94.400 C 398.958 94.400,399.224 94.115,399.357 93.767 C 399.738 92.775,399.642 91.200,399.200 91.200 C 398.612 91.200,398.711 89.602,399.300 89.587 C 399.575 89.579,399.395 89.236,398.900 88.823 C 398.405 88.410,398.000 87.786,398.000 87.436 C 398.000 87.086,397.820 86.800,397.600 86.800 C 397.380 86.800,397.200 86.365,397.200 85.833 C 397.200 85.302,396.975 84.776,396.700 84.665 C 396.300 84.504,396.300 84.457,396.700 84.432 C 397.642 84.372,397.201 83.559,396.000 83.140 C 395.234 82.873,394.800 82.447,394.800 81.961 C 394.800 81.542,394.620 81.200,394.400 81.200 C 394.180 81.200,394.000 80.930,394.000 80.600 C 394.000 80.270,393.809 80.000,393.576 80.000 C 393.343 80.000,393.254 79.837,393.377 79.637 C 394.003 78.624,391.197 80.160,385.418 83.994 C 381.888 86.336,375.940 90.205,372.200 92.593 C 368.460 94.980,363.020 98.524,360.111 100.467 C 357.201 102.410,354.732 104.000,354.622 104.000 C 354.513 104.000,353.653 104.526,352.712 105.168 C 349.027 107.681,331.936 118.800,331.757 118.800 C 331.652 118.800,331.349 118.985,331.083 119.212 C 330.665 119.568,317.920 127.895,308.800 133.770 C 307.150 134.833,301.080 138.785,295.311 142.552 C 289.541 146.318,284.515 149.580,284.141 149.800 C 283.768 150.020,279.218 152.972,274.031 156.361 C 268.844 159.749,263.472 163.214,262.093 164.061 L 259.586 165.600 247.369 165.600 C 238.582 165.600,235.229 165.476,235.425 165.160 C 235.575 164.918,237.250 163.729,239.148 162.518 C 243.151 159.966,242.640 160.297,254.600 152.513 C 259.660 149.220,265.330 145.536,267.200 144.327 C 272.712 140.762,286.224 131.995,297.600 124.603 C 303.430 120.815,311.551 115.544,315.647 112.890 C 319.744 110.236,325.144 106.731,327.647 105.101 C 336.637 99.250,348.655 91.411,351.529 89.524 C 353.141 88.466,354.524 87.600,354.603 87.600 C 354.682 87.600,358.944 84.845,364.073 81.477 C 369.203 78.109,374.779 74.500,376.465 73.457 C 380.343 71.058,380.898 70.000,378.280 70.000 C 377.582 70.000,376.801 69.663,376.383 69.180 C 375.943 68.673,375.573 68.520,375.412 68.780 C 375.270 69.011,374.163 69.200,372.953 69.200 C 371.588 69.200,370.847 69.048,371.000 68.800 C 371.159 68.543,369.671 68.400,366.824 68.400 C 364.391 68.400,362.400 68.562,362.400 68.761 C 362.400 68.960,361.455 69.747,360.300 70.512 C 343.533 81.606,328.335 91.600,328.232 91.600 C 328.159 91.600,324.883 93.724,320.950 96.319 C 317.018 98.915,310.112 103.460,305.603 106.419 C 301.095 109.379,293.805 114.192,289.403 117.115 C 285.002 120.038,281.040 122.597,280.600 122.800 C 280.160 123.003,276.110 125.620,271.600 128.614 C 267.090 131.608,259.260 136.776,254.200 140.098 C 249.140 143.420,242.860 147.547,240.243 149.269 C 237.627 150.991,235.242 152.400,234.943 152.400 C 234.489 152.400,234.399 145.663,234.395 111.300 C 234.392 88.695,234.281 69.795,234.148 69.300 C 233.829 68.112,221.493 67.860,221.043 69.033 M0.000 227.600 L 0.000 234.400 54.600 234.400 C 84.630 234.400,109.200 234.550,109.200 234.733 C 109.200 234.916,108.255 235.675,107.100 236.421 C 105.945 237.166,98.649 241.967,90.887 247.088 C 83.125 252.210,76.600 256.400,76.387 256.400 C 76.174 256.400,76.000 256.550,76.000 256.732 C 76.000 256.915,75.510 257.320,74.912 257.632 C 74.314 257.945,71.479 259.745,68.612 261.632 C 65.745 263.520,61.330 266.418,58.800 268.071 C 56.270 269.724,48.566 274.795,41.680 279.339 C 34.794 283.882,28.989 287.600,28.780 287.600 C 28.571 287.600,28.400 287.750,28.400 287.932 C 28.400 288.115,27.906 288.520,27.303 288.832 C 21.211 291.984,0.400 306.500,0.400 307.597 C 0.400 308.259,0.580 308.800,0.800 308.800 C 1.388 308.800,1.289 310.398,0.700 310.413 C 0.425 310.421,0.605 310.764,1.100 311.177 C 1.595 311.590,2.000 312.214,2.000 312.564 C 2.000 312.914,2.180 313.200,2.400 313.200 C 2.620 313.200,2.800 313.635,2.800 314.167 C 2.800 314.698,3.025 315.225,3.300 315.336 C 3.676 315.489,3.651 315.642,3.200 315.955 C 2.709 316.296,2.836 316.454,3.900 316.825 C 4.752 317.122,5.200 317.540,5.200 318.039 C 5.200 318.458,5.359 318.800,5.553 318.800 C 5.748 318.800,6.001 319.160,6.116 319.600 C 6.461 320.918,7.293 320.573,13.479 316.549 C 16.736 314.431,20.030 312.290,20.800 311.792 C 21.570 311.293,25.350 308.831,29.200 306.319 C 33.050 303.808,37.460 300.941,39.000 299.949 C 43.359 297.141,62.289 284.836,74.000 277.200 C 79.830 273.398,85.100 269.998,85.711 269.644 C 86.322 269.290,89.837 267.020,93.523 264.600 C 97.209 262.180,102.289 258.869,104.812 257.242 C 107.336 255.615,110.868 253.324,112.663 252.152 C 123.010 245.395,127.282 242.621,133.333 238.730 L 140.066 234.400 152.233 234.400 C 158.925 234.400,164.400 234.535,164.399 234.700 C 164.399 234.865,161.064 237.160,156.989 239.800 C 152.914 242.440,146.840 246.384,143.490 248.564 C 140.141 250.743,133.170 255.260,128.000 258.600 C 122.830 261.941,115.866 266.457,112.524 268.637 C 95.672 279.629,91.352 282.435,86.200 285.738 C 83.120 287.713,76.640 291.914,71.800 295.073 C 66.960 298.232,62.730 300.990,62.400 301.202 C 62.070 301.415,56.400 305.090,49.800 309.369 C 17.861 330.079,17.970 330.000,21.453 330.000 C 22.456 330.000,23.154 330.279,23.707 330.900 C 24.250 331.510,24.565 331.639,24.687 331.300 C 24.904 330.696,29.200 330.600,29.200 331.200 C 29.200 331.441,30.867 331.600,33.400 331.600 C 35.710 331.600,37.600 331.440,37.600 331.244 C 37.600 330.841,63.002 314.000,63.609 314.000 C 63.824 314.000,64.000 313.850,64.000 313.668 C 64.000 313.485,64.494 313.080,65.098 312.768 C 65.702 312.455,72.548 308.015,80.311 302.900 C 88.074 297.785,94.585 293.600,94.780 293.600 C 94.974 293.600,95.193 293.450,95.267 293.267 C 95.381 292.983,100.899 289.290,108.200 284.611 C 113.045 281.506,116.586 279.189,128.910 271.054 C 136.121 266.294,142.196 262.400,142.410 262.400 C 142.625 262.400,142.800 262.241,142.800 262.046 C 142.800 261.851,143.405 261.404,144.145 261.053 C 144.885 260.702,145.717 260.141,145.994 259.807 C 146.271 259.473,146.636 259.200,146.805 259.200 C 146.974 259.200,148.976 257.970,151.256 256.466 C 166.335 246.519,165.361 247.055,165.748 248.500 C 165.881 248.995,165.992 267.895,165.995 290.500 L 166.000 331.600 172.357 331.600 C 177.785 331.600,178.750 331.508,178.957 330.967 C 179.091 330.619,179.200 305.689,179.200 275.567 L 179.200 220.800 89.600 220.800 L 0.000 220.800 0.000 227.600 M220.800 275.567 C 220.800 305.689,220.909 330.619,221.043 330.967 C 221.493 332.140,233.829 331.888,234.148 330.700 C 234.281 330.205,234.392 311.305,234.395 288.700 C 234.398 259.528,234.525 247.600,234.832 247.600 C 235.070 247.600,236.195 248.203,237.332 248.939 C 238.469 249.675,241.650 251.735,244.400 253.515 C 247.150 255.296,249.618 256.944,249.885 257.178 C 250.152 257.412,250.827 257.812,251.385 258.066 C 251.943 258.320,252.400 258.680,252.400 258.864 C 252.400 259.049,252.569 259.200,252.776 259.200 C 252.983 259.200,260.498 264.067,269.476 270.016 C 278.454 275.965,286.067 280.950,286.394 281.095 C 286.857 281.300,315.433 300.033,328.033 308.392 C 329.262 309.207,331.017 310.295,331.933 310.811 C 332.850 311.326,333.600 311.894,333.600 312.074 C 333.600 312.253,333.773 312.400,333.985 312.400 C 334.510 312.400,361.688 330.318,362.244 331.031 C 362.776 331.713,370.800 331.871,370.800 331.200 C 370.800 330.600,375.096 330.696,375.313 331.300 C 375.435 331.639,375.750 331.510,376.293 330.900 C 376.846 330.279,377.544 330.000,378.547 330.000 C 379.346 330.000,380.000 329.820,380.000 329.600 C 380.000 329.380,380.360 329.200,380.800 329.200 C 381.240 329.200,381.600 329.020,381.600 328.800 C 381.600 328.580,381.949 328.400,382.376 328.400 C 382.803 328.400,383.264 328.220,383.400 328.000 C 383.536 327.780,384.074 327.600,384.597 327.600 C 385.409 327.600,386.440 326.237,385.937 325.829 C 385.643 325.591,356.980 306.952,334.600 292.446 C 328.440 288.453,323.130 285.010,322.800 284.795 C 320.010 282.976,301.491 270.935,300.400 270.230 C 299.630 269.733,295.040 266.746,290.200 263.593 C 285.360 260.440,280.140 257.055,278.600 256.070 C 277.060 255.085,273.010 252.455,269.600 250.224 C 266.190 247.994,259.497 243.665,254.726 240.604 C 249.955 237.544,246.141 234.896,246.250 234.720 C 246.358 234.544,251.839 234.400,258.428 234.400 L 270.410 234.400 273.105 236.144 C 274.587 237.103,277.690 239.103,280.000 240.589 C 285.465 244.105,294.008 249.676,309.800 260.026 C 316.840 264.640,322.870 268.538,323.200 268.688 C 323.530 268.839,328.390 271.957,334.000 275.617 C 349.864 285.968,362.333 294.075,365.384 296.023 C 366.916 297.000,372.172 300.410,377.064 303.600 C 397.303 316.796,397.200 316.742,397.200 314.173 C 397.200 313.638,397.380 313.200,397.600 313.200 C 397.820 313.200,398.000 312.914,398.000 312.564 C 398.000 312.214,398.405 311.590,398.900 311.177 C 399.395 310.764,399.575 310.421,399.300 310.413 C 398.711 310.398,398.612 308.800,399.200 308.800 C 399.642 308.800,399.738 307.225,399.357 306.233 C 399.224 305.885,398.951 305.600,398.751 305.600 C 398.550 305.600,392.257 301.550,384.765 296.600 C 377.273 291.650,371.063 287.600,370.965 287.600 C 370.867 287.600,368.012 285.755,364.621 283.500 C 348.506 272.784,326.212 258.174,325.626 257.945 C 325.266 257.804,324.731 257.399,324.437 257.045 C 324.143 256.690,323.750 256.400,323.564 256.400 C 323.378 256.400,316.875 252.210,309.113 247.088 C 301.351 241.967,294.055 237.166,292.900 236.421 C 291.745 235.675,290.800 234.916,290.800 234.733 C 290.800 234.550,315.370 234.400,345.400 234.400 L 400.000 234.400 400.000 227.600 L 400.000 220.800 310.400 220.800 L 220.800 220.800 220.800 275.567 " stroke="none" fill="#f3f0f1" fill-rule="evenodd"></path><path id="path1" d="M179.452 69.300 C 179.319 69.795,179.208 94.725,179.205 124.700 L 179.200 179.200 89.600 179.200 L 0.000 179.200 0.000 200.000 L 0.000 220.800 89.600 220.800 L 179.200 220.800 179.205 275.300 C 179.208 305.275,179.319 330.205,179.452 330.700 L 179.693 331.600 200.000 331.600 L 220.307 331.600 220.548 330.700 C 220.681 330.205,220.792 305.275,220.795 275.300 L 220.800 220.800 310.400 220.800 L 400.000 220.800 400.000 200.000 L 400.000 179.200 310.400 179.200 L 220.800 179.200 220.795 124.700 C 220.792 94.725,220.681 69.795,220.548 69.300 L 220.307 68.400 200.000 68.400 L 179.693 68.400 179.452 69.300 M377.000 73.018 C 370.454 77.363,356.267 86.621,355.251 87.209 C 353.902 87.991,351.358 89.630,340.800 96.522 C 328.713 104.412,324.164 107.372,315.647 112.890 C 311.551 115.544,303.430 120.815,297.600 124.603 C 286.224 131.995,272.712 140.762,267.200 144.327 C 265.330 145.536,259.660 149.220,254.600 152.513 C 242.640 160.297,243.151 159.966,239.148 162.518 C 237.250 163.729,235.575 164.918,235.425 165.160 C 235.229 165.476,238.582 165.600,247.369 165.600 L 259.586 165.600 262.093 164.061 C 263.472 163.214,268.844 159.749,274.031 156.361 C 279.218 152.972,283.768 150.020,284.141 149.800 C 284.515 149.580,289.541 146.318,295.311 142.552 C 301.080 138.785,307.150 134.833,308.800 133.770 C 317.920 127.895,330.665 119.568,331.083 119.212 C 331.349 118.985,331.652 118.800,331.757 118.800 C 331.936 118.800,349.027 107.681,352.712 105.168 C 353.653 104.526,354.514 104.000,354.625 104.000 C 354.736 104.000,356.730 102.723,359.056 101.162 C 361.383 99.601,367.812 95.406,373.343 91.840 C 392.868 79.250,393.970 78.424,392.169 77.733 C 391.856 77.613,391.600 77.341,391.600 77.129 C 391.600 76.682,390.591 75.600,390.175 75.600 C 390.021 75.600,389.558 75.212,389.147 74.739 C 388.705 74.230,388.400 74.091,388.400 74.400 C 388.400 74.709,388.095 74.570,387.653 74.061 C 387.242 73.588,386.652 73.200,386.341 73.200 C 386.031 73.200,385.517 72.840,385.200 72.400 C 384.861 71.930,384.165 71.600,383.512 71.600 C 382.900 71.600,382.400 71.420,382.400 71.200 C 382.400 70.234,379.951 71.059,377.000 73.018 M10.400 75.132 C 10.400 75.315,9.950 75.706,9.400 76.000 C 8.850 76.294,8.400 76.663,8.400 76.818 C 8.400 76.974,7.680 77.866,6.800 78.800 C 5.920 79.734,5.200 80.707,5.200 80.961 C 5.200 81.215,4.840 81.683,4.400 82.000 C 3.960 82.317,3.597 82.942,3.594 83.388 C 3.589 84.059,3.520 84.096,3.200 83.600 C 2.903 83.141,2.815 83.282,2.825 84.200 C 2.839 85.416,6.390 87.907,23.691 98.838 C 25.291 99.848,30.470 103.230,35.200 106.352 C 39.930 109.474,44.067 112.147,44.394 112.293 C 44.720 112.439,47.060 113.932,49.594 115.612 C 54.141 118.627,59.941 122.409,65.400 125.919 C 66.940 126.909,71.800 130.063,76.200 132.929 C 80.600 135.795,85.100 138.711,86.200 139.409 C 87.300 140.107,92.340 143.376,97.400 146.674 C 102.460 149.971,111.063 155.579,116.519 159.135 L 126.437 165.600 138.619 165.600 C 145.318 165.600,150.796 165.465,150.792 165.300 C 150.783 164.954,147.832 163.007,117.000 143.004 C 101.546 132.977,86.059 122.916,76.663 116.800 C 72.438 114.050,67.186 110.643,64.991 109.229 C 62.796 107.815,59.020 105.369,56.600 103.794 C 54.180 102.220,50.130 99.587,47.600 97.943 C 45.070 96.300,38.459 91.996,32.909 88.378 C 27.358 84.760,22.513 81.620,22.142 81.400 C 21.771 81.180,19.336 79.605,16.733 77.900 C 12.460 75.102,10.400 74.202,10.400 75.132 M137.200 236.190 C 135.770 237.146,130.730 240.431,126.000 243.489 C 121.270 246.548,115.600 250.227,113.400 251.666 C 111.200 253.105,107.336 255.614,104.812 257.241 C 102.289 258.868,97.209 262.180,93.523 264.600 C 89.837 267.020,86.322 269.290,85.711 269.644 C 85.100 269.998,79.830 273.398,74.000 277.200 C 62.289 284.836,43.359 297.141,39.000 299.949 C 37.460 300.941,33.050 303.810,29.200 306.325 C 25.350 308.840,21.210 311.530,20.000 312.303 C 7.182 320.496,6.237 321.242,7.600 322.093 C 8.040 322.368,8.400 322.819,8.400 323.096 C 8.400 323.373,8.535 323.601,8.700 323.602 C 8.865 323.603,9.545 324.098,10.212 324.702 C 10.878 325.306,11.688 325.858,12.012 325.930 C 12.335 326.001,12.660 326.226,12.733 326.430 C 12.807 326.633,13.172 326.800,13.545 326.800 C 13.918 326.800,14.483 327.160,14.800 327.600 C 15.139 328.070,15.835 328.400,16.488 328.400 C 17.100 328.400,17.600 328.600,17.600 328.845 C 17.600 329.991,20.481 328.500,28.800 323.048 C 35.643 318.564,57.377 304.433,62.400 301.202 C 62.730 300.990,66.960 298.232,71.800 295.073 C 76.640 291.914,83.120 287.713,86.200 285.738 C 91.352 282.435,95.672 279.629,112.524 268.637 C 115.866 266.457,122.830 261.941,128.000 258.600 C 133.170 255.260,140.141 250.743,143.490 248.564 C 146.840 246.384,152.914 242.440,156.989 239.800 C 161.064 237.160,164.399 234.865,164.399 234.700 C 164.400 234.535,158.865 234.412,152.100 234.426 L 139.800 234.451 137.200 236.190 M246.250 234.720 C 246.141 234.896,249.955 237.544,254.726 240.604 C 259.497 243.665,266.190 247.994,269.600 250.224 C 273.010 252.455,277.060 255.085,278.600 256.070 C 280.140 257.055,285.360 260.440,290.200 263.593 C 295.040 266.746,299.630 269.733,300.400 270.230 C 301.491 270.935,320.010 282.976,322.800 284.795 C 323.130 285.010,328.440 288.453,334.600 292.446 C 353.331 304.587,366.939 313.432,376.600 319.748 C 385.087 325.296,388.000 326.803,388.000 325.645 C 388.000 325.400,388.171 325.245,388.379 325.300 C 388.973 325.456,391.180 323.876,391.423 323.120 C 391.543 322.747,391.992 322.330,392.420 322.194 C 392.849 322.057,393.200 321.728,393.200 321.461 C 393.200 321.195,393.560 320.717,394.000 320.400 C 394.440 320.083,394.800 319.503,394.800 319.112 C 394.800 318.720,394.980 318.400,395.200 318.400 C 395.420 318.400,395.603 317.995,395.606 317.500 C 395.611 316.772,395.686 316.715,396.000 317.200 C 396.317 317.691,396.389 317.645,396.394 316.948 C 396.399 316.289,395.209 315.332,391.176 312.748 C 388.303 310.906,381.951 306.790,377.061 303.600 C 372.170 300.410,366.916 297.000,365.384 296.023 C 362.333 294.075,349.864 285.968,334.000 275.617 C 328.390 271.957,323.530 268.839,323.200 268.688 C 322.870 268.538,316.840 264.640,309.800 260.026 C 294.008 249.676,285.465 244.105,280.000 240.589 C 277.690 239.103,274.587 237.103,273.105 236.144 L 270.410 234.400 258.428 234.400 C 251.839 234.400,246.358 234.544,246.250 234.720 " stroke="none" fill="#fb4c54" fill-rule="evenodd"></path><path id="path2" d="M38.400 68.757 C 38.400 68.971,38.940 69.530,39.600 70.000 C 40.260 70.470,40.800 70.662,40.800 70.427 C 40.800 70.192,40.654 70.000,40.475 70.000 C 40.297 70.000,39.757 69.633,39.275 69.184 C 38.794 68.736,38.400 68.544,38.400 68.757 M165.067 68.667 C 164.920 68.813,164.800 87.443,164.800 110.067 C 164.800 132.690,164.720 151.200,164.623 151.200 C 164.327 151.200,161.508 149.508,159.600 148.184 C 157.606 146.800,155.577 145.678,156.200 146.304 C 156.911 147.017,164.781 152.000,165.197 152.000 C 165.465 152.000,165.600 138.012,165.600 110.200 C 165.600 87.210,165.540 68.400,165.467 68.400 C 165.393 68.400,165.213 68.520,165.067 68.667 M234.706 110.072 C 234.764 132.992,234.895 151.829,234.998 151.932 C 235.184 152.117,244.000 146.437,244.000 146.131 C 244.000 145.885,242.389 146.804,240.400 148.184 C 238.492 149.508,235.673 151.200,235.377 151.200 C 235.280 151.200,235.200 132.570,235.200 109.800 C 235.200 87.030,235.065 68.400,234.900 68.400 C 234.735 68.400,234.647 87.152,234.706 110.072 M360.906 69.017 C 360.634 69.312,360.096 69.731,359.709 69.947 C 359.323 70.163,359.102 70.436,359.219 70.552 C 359.336 70.669,359.964 70.339,360.616 69.818 C 361.267 69.298,361.710 68.784,361.600 68.676 C 361.490 68.569,361.178 68.722,360.906 69.017 M41.776 71.413 C 42.204 71.736,42.733 72.000,42.953 72.000 C 43.173 72.000,43.004 71.736,42.576 71.413 C 42.149 71.090,41.620 70.825,41.400 70.825 C 41.180 70.825,41.349 71.090,41.776 71.413 M357.429 71.409 C 357.005 71.729,356.738 72.071,356.835 72.169 C 356.932 72.266,357.459 72.002,358.006 71.582 C 358.553 71.161,358.820 70.820,358.600 70.822 C 358.380 70.824,357.853 71.088,357.429 71.409 M43.820 72.736 C 44.448 73.292,47.200 74.879,47.200 74.686 C 47.200 74.445,44.094 72.400,43.729 72.400 C 43.570 72.400,43.611 72.551,43.820 72.736 M352.496 74.689 C 350.679 75.919,349.256 76.989,349.334 77.067 C 349.469 77.202,355.383 73.468,356.180 72.745 C 357.321 71.709,355.398 72.724,352.496 74.689 M53.800 79.090 C 54.138 79.435,65.186 86.852,66.700 87.750 C 66.975 87.914,67.200 87.857,67.200 87.624 C 67.200 87.391,66.930 87.200,66.600 87.200 C 66.270 87.200,66.000 87.020,66.000 86.800 C 66.000 86.580,65.821 86.400,65.602 86.400 C 65.382 86.400,62.817 84.808,59.902 82.863 C 54.325 79.142,53.120 78.397,53.800 79.090 M337.997 84.250 C 333.847 87.004,331.555 88.694,333.200 87.787 C 334.134 87.272,342.154 81.937,342.580 81.548 C 343.543 80.666,342.242 81.434,337.997 84.250 M72.400 91.363 C 72.400 91.443,72.850 91.803,73.400 92.163 C 73.950 92.524,74.400 92.663,74.400 92.473 C 74.400 92.284,73.950 91.923,73.400 91.673 C 72.850 91.422,72.400 91.283,72.400 91.363 M75.594 93.582 C 76.141 94.002,76.668 94.266,76.765 94.169 C 76.991 93.942,75.529 92.827,75.000 92.822 C 74.780 92.820,75.047 93.161,75.594 93.582 M77.994 95.182 C 78.541 95.602,79.068 95.866,79.165 95.769 C 79.391 95.542,77.929 94.427,77.400 94.422 C 77.180 94.420,77.447 94.761,77.994 95.182 M321.429 95.009 C 321.005 95.329,320.738 95.671,320.835 95.769 C 320.932 95.866,321.459 95.602,322.006 95.182 C 322.553 94.761,322.820 94.420,322.600 94.422 C 322.380 94.424,321.853 94.688,321.429 95.009 M2.600 95.890 C 2.993 96.290,13.223 103.135,14.400 103.786 C 16.148 104.752,13.618 102.917,8.800 99.724 C 2.985 95.871,1.957 95.235,2.600 95.890 M396.344 96.387 C 395.825 96.819,395.543 97.179,395.717 97.187 C 395.891 97.194,396.420 96.840,396.892 96.400 C 397.999 95.369,397.579 95.358,396.344 96.387 M79.600 96.183 C 79.600 96.284,80.455 96.864,81.500 97.472 C 82.545 98.080,86.280 100.483,89.800 102.812 C 97.153 107.677,97.200 107.706,97.200 107.471 C 97.200 107.251,80.177 96.000,79.844 96.000 C 79.710 96.000,79.600 96.082,79.600 96.183 M317.400 97.653 C 315.072 99.196,313.501 100.492,314.800 99.796 C 316.001 99.153,320.400 96.285,320.400 96.144 C 320.400 95.787,319.632 96.174,317.400 97.653 M390.397 100.250 C 386.247 103.004,383.955 104.694,385.600 103.787 C 386.534 103.272,394.554 97.937,394.980 97.548 C 395.943 96.666,394.642 97.434,390.397 100.250 M307.998 103.850 C 302.878 107.249,299.353 109.826,302.600 107.797 C 306.278 105.497,314.000 100.340,314.000 100.183 C 314.000 99.868,313.929 99.911,307.998 103.850 M17.600 105.727 C 17.600 106.009,23.273 109.661,23.444 109.489 C 23.537 109.397,22.664 108.693,21.506 107.926 C 19.156 106.368,17.600 105.493,17.600 105.727 M377.500 108.629 C 376.895 108.957,376.400 109.310,376.400 109.413 C 376.400 109.799,377.032 109.557,378.000 108.800 C 379.189 107.870,379.011 107.809,377.500 108.629 M24.000 109.895 C 24.000 110.284,25.614 111.319,25.851 111.082 C 25.947 110.986,25.569 110.610,25.012 110.245 C 24.456 109.880,24.000 109.722,24.000 109.895 M374.794 110.418 C 374.247 110.839,373.980 111.180,374.200 111.178 C 374.729 111.173,376.191 110.058,375.965 109.831 C 375.868 109.734,375.341 109.998,374.794 110.418 M26.400 111.495 C 26.400 111.884,28.014 112.919,28.251 112.682 C 28.347 112.586,27.969 112.210,27.412 111.845 C 26.856 111.480,26.400 111.322,26.400 111.495 M372.394 112.018 C 371.847 112.439,371.580 112.780,371.800 112.778 C 372.329 112.773,373.791 111.658,373.565 111.431 C 373.468 111.334,372.941 111.598,372.394 112.018 M105.020 112.761 C 105.882 113.581,121.999 123.960,121.994 123.691 C 121.990 123.531,120.415 122.393,118.494 121.163 C 116.572 119.933,114.480 118.583,113.844 118.163 C 113.208 117.743,112.411 117.220,112.073 117.000 C 111.735 116.780,110.043 115.655,108.314 114.500 C 105.433 112.577,104.067 111.855,105.020 112.761 M290.129 115.536 C 286.062 118.323,284.039 119.867,285.600 118.992 C 286.577 118.445,294.567 113.126,294.980 112.748 C 296.243 111.593,294.006 112.878,290.129 115.536 M28.800 113.095 C 28.800 113.484,30.414 114.519,30.651 114.282 C 30.747 114.186,30.369 113.810,29.812 113.445 C 29.256 113.080,28.800 112.922,28.800 113.095 M369.994 113.618 C 369.447 114.039,369.180 114.380,369.400 114.378 C 369.929 114.373,371.391 113.258,371.165 113.031 C 371.068 112.934,370.541 113.198,369.994 113.618 M31.205 114.694 C 31.211 115.079,34.016 116.917,34.246 116.687 C 34.340 116.594,33.693 116.038,32.808 115.453 C 31.924 114.868,31.202 114.526,31.205 114.694 M367.092 115.483 C 366.263 116.052,365.661 116.595,365.754 116.688 C 365.982 116.915,368.789 115.081,368.795 114.700 C 368.802 114.304,368.828 114.291,367.092 115.483 M34.800 116.951 C 34.800 117.138,40.714 121.121,42.000 121.801 C 43.318 122.496,41.682 121.231,38.800 119.325 C 35.119 116.891,34.800 116.702,34.800 116.951 M360.687 119.669 C 358.315 121.230,356.449 122.582,356.541 122.674 C 356.633 122.766,358.176 121.842,359.970 120.621 C 361.763 119.399,363.376 118.400,363.553 118.400 C 363.731 118.400,364.202 118.040,364.600 117.600 C 365.662 116.427,365.416 116.557,360.687 119.669 M281.029 121.409 C 280.605 121.729,280.338 122.071,280.435 122.169 C 280.532 122.266,281.059 122.002,281.606 121.582 C 282.153 121.161,282.420 120.820,282.200 120.822 C 281.980 120.824,281.453 121.088,281.029 121.409 M278.629 123.009 C 278.205 123.329,277.938 123.671,278.035 123.769 C 278.132 123.866,278.659 123.602,279.206 123.182 C 279.753 122.761,280.020 122.420,279.800 122.422 C 279.580 122.424,279.053 122.688,278.629 123.009 M123.194 124.782 C 123.741 125.202,124.268 125.466,124.365 125.369 C 124.591 125.142,123.129 124.027,122.600 124.022 C 122.380 124.020,122.647 124.361,123.194 124.782 M276.229 124.609 C 275.805 124.929,275.538 125.271,275.635 125.369 C 275.732 125.466,276.259 125.202,276.806 124.782 C 277.353 124.361,277.620 124.020,277.400 124.022 C 277.180 124.024,276.653 124.288,276.229 124.609 M125.594 126.382 C 126.141 126.802,126.668 127.066,126.765 126.969 C 126.991 126.742,125.529 125.627,125.000 125.622 C 124.780 125.620,125.047 125.961,125.594 126.382 M273.829 126.209 C 273.405 126.529,273.138 126.871,273.235 126.969 C 273.332 127.066,273.859 126.802,274.406 126.382 C 274.953 125.961,275.220 125.620,275.000 125.622 C 274.780 125.624,274.253 125.888,273.829 126.209 M270.881 128.172 C 270.156 128.684,269.436 129.239,269.281 129.403 C 268.864 129.847,271.273 128.559,272.200 127.843 C 273.475 126.859,272.337 127.142,270.881 128.172 M52.400 128.534 C 52.400 128.843,70.860 140.873,71.047 140.686 C 71.144 140.589,70.003 139.731,68.512 138.778 C 67.020 137.826,63.010 135.226,59.600 132.999 C 52.384 128.287,52.400 128.297,52.400 128.534 M339.800 133.431 C 333.724 137.437,330.529 139.776,334.400 137.385 C 336.873 135.857,345.713 129.976,346.180 129.548 C 347.155 128.655,345.726 129.524,339.800 133.431 M267.600 130.420 L 266.600 131.222 267.700 130.747 C 268.305 130.485,268.800 130.120,268.800 129.936 C 268.800 129.479,268.745 129.502,267.600 130.420 M133.800 131.490 C 134.192 131.889,144.421 138.734,145.600 139.386 C 145.930 139.568,145.803 139.331,145.317 138.859 C 144.831 138.386,144.331 138.000,144.205 138.000 C 144.079 138.000,141.867 136.593,139.288 134.873 C 134.212 131.487,133.159 130.838,133.800 131.490 M260.398 135.050 C 255.241 138.473,252.613 140.373,254.400 139.386 C 255.347 138.862,265.757 131.936,266.180 131.549 C 267.179 130.632,265.730 131.510,260.398 135.050 M330.300 139.507 C 329.475 140.072,328.874 140.607,328.964 140.697 C 329.129 140.863,332.400 138.816,332.400 138.547 C 332.400 138.222,331.726 138.530,330.300 139.507 M327.194 141.618 C 326.647 142.039,326.380 142.380,326.600 142.378 C 327.129 142.373,328.591 141.258,328.365 141.031 C 328.268 140.934,327.741 141.198,327.194 141.618 M74.000 142.727 C 74.000 142.916,74.450 143.277,75.000 143.527 C 75.550 143.778,76.000 143.917,76.000 143.837 C 76.000 143.757,75.550 143.397,75.000 143.037 C 74.450 142.676,74.000 142.537,74.000 142.727 M324.794 143.218 C 324.247 143.639,323.980 143.980,324.200 143.978 C 324.729 143.973,326.191 142.858,325.965 142.631 C 325.868 142.534,325.341 142.798,324.794 143.218 M152.400 143.714 C 152.400 143.813,153.120 144.370,154.000 144.953 C 154.880 145.535,155.599 145.874,155.597 145.706 C 155.596 145.538,155.011 145.044,154.297 144.610 C 152.663 143.614,152.400 143.490,152.400 143.714 M76.400 144.295 C 76.400 144.684,78.014 145.719,78.251 145.482 C 78.347 145.386,77.969 145.010,77.412 144.645 C 76.856 144.280,76.400 144.122,76.400 144.295 M322.394 144.818 C 321.847 145.239,321.580 145.580,321.800 145.578 C 322.329 145.573,323.791 144.458,323.565 144.231 C 323.468 144.134,322.941 144.398,322.394 144.818 M319.994 146.418 C 319.447 146.839,319.180 147.180,319.400 147.178 C 319.929 147.173,321.391 146.058,321.165 145.831 C 321.068 145.734,320.541 145.998,319.994 146.418 M83.083 148.741 C 83.569 149.214,84.071 149.600,84.199 149.600 C 84.326 149.600,85.999 150.648,87.915 151.928 C 91.799 154.524,92.816 155.136,92.200 154.511 C 91.804 154.109,83.956 148.851,82.800 148.213 C 82.470 148.031,82.597 148.269,83.083 148.741 M311.533 151.911 C 308.306 154.050,305.516 155.960,305.333 156.155 C 304.679 156.850,306.833 155.544,311.206 152.596 C 313.650 150.948,315.790 149.600,315.963 149.600 C 316.135 149.600,316.602 149.240,317.000 148.800 C 318.105 147.579,317.830 147.735,311.533 151.911 M97.800 158.289 C 98.561 159.061,106.870 164.464,107.038 164.295 C 107.131 164.202,105.270 162.866,102.903 161.327 C 98.172 158.248,97.177 157.656,97.800 158.289 M295.108 162.703 C 293.187 163.966,291.612 165.135,291.608 165.300 C 291.603 165.465,315.990 165.600,345.800 165.600 C 381.667 165.600,400.000 165.465,400.000 165.200 C 400.000 164.935,381.835 164.800,346.304 164.800 L 292.609 164.800 295.404 162.948 C 296.942 161.929,298.371 160.939,298.580 160.748 C 299.462 159.940,298.389 160.545,295.108 162.703 M53.700 164.701 C 18.365 164.768,-0.000 164.939,-0.000 165.201 C -0.000 165.464,18.476 165.600,54.233 165.600 C 95.920 165.600,108.430 165.490,108.308 165.125 C 108.109 164.528,115.460 164.585,53.700 164.701 M53.800 235.197 C 83.500 235.309,107.971 235.265,108.180 235.100 C 108.389 234.935,84.089 234.844,54.180 234.897 L -0.200 234.994 53.800 235.197 M291.812 235.106 C 292.664 235.714,301.425 241.450,302.000 241.777 C 303.746 242.768,301.286 240.960,297.205 238.252 L 292.610 235.203 346.405 235.100 L 400.200 234.997 345.800 234.905 C 315.880 234.854,291.585 234.944,291.812 235.106 M105.829 236.209 C 105.405 236.529,105.138 236.871,105.235 236.969 C 105.332 237.066,105.859 236.802,106.406 236.382 C 106.953 235.961,107.220 235.620,107.000 235.622 C 106.780 235.624,106.253 235.888,105.829 236.209 M99.697 240.290 C 97.220 241.961,95.263 243.396,95.346 243.480 C 95.489 243.623,103.759 238.314,104.580 237.553 C 105.800 236.420,103.633 237.635,99.697 240.290 M85.906 249.400 C 83.767 250.830,81.926 252.000,81.813 252.000 C 81.701 252.000,81.292 252.267,80.905 252.592 C 80.517 252.918,79.840 253.472,79.400 253.822 C 78.960 254.173,78.870 254.323,79.200 254.157 C 79.987 253.761,89.288 247.599,89.780 247.148 C 90.720 246.287,89.505 246.993,85.906 249.400 M310.200 247.099 C 310.545 247.442,319.301 253.322,320.700 254.151 C 320.975 254.314,321.200 254.257,321.200 254.024 C 321.200 253.791,320.964 253.600,320.675 253.600 C 320.387 253.600,319.764 253.240,319.292 252.800 C 318.820 252.360,318.343 252.000,318.232 252.000 C 318.121 252.000,316.595 251.022,314.840 249.827 C 311.623 247.636,309.461 246.366,310.200 247.099 M162.380 249.656 C 154.389 254.785,152.399 256.132,152.566 256.300 C 152.669 256.402,154.217 255.476,156.008 254.243 C 157.799 253.009,159.349 252.000,159.454 252.000 C 159.558 252.000,160.704 251.280,162.000 250.400 C 163.296 249.520,164.456 248.800,164.578 248.800 C 164.700 248.800,164.813 267.115,164.828 289.500 C 164.844 311.885,165.011 330.560,165.200 331.000 C 165.395 331.453,165.556 313.647,165.572 289.900 C 165.587 266.855,165.456 248.000,165.280 248.000 C 165.103 248.000,163.798 248.745,162.380 249.656 M234.800 289.167 C 234.800 311.809,234.679 330.649,234.532 331.033 C 234.349 331.509,234.413 331.639,234.732 331.442 C 235.084 331.224,235.200 320.983,235.200 289.976 C 235.200 267.329,235.300 248.800,235.422 248.800 C 235.544 248.800,236.704 249.520,238.000 250.400 C 239.296 251.280,240.449 252.000,240.563 252.000 C 240.676 252.000,242.237 252.999,244.030 254.221 C 245.824 255.442,247.367 256.366,247.459 256.274 C 247.624 256.110,235.421 248.000,235.010 248.000 C 234.894 248.000,234.800 266.525,234.800 289.167 M322.394 255.182 C 322.941 255.602,323.468 255.866,323.565 255.769 C 323.791 255.542,322.329 254.427,321.800 254.422 C 321.580 254.420,321.847 254.761,322.394 255.182 M76.400 255.551 C 76.400 255.745,75.860 256.127,75.200 256.400 C 74.540 256.673,74.000 257.049,74.000 257.235 C 74.000 257.421,74.631 257.201,75.401 256.746 C 76.904 255.860,77.511 255.200,76.824 255.200 C 76.591 255.200,76.400 255.358,76.400 255.551 M324.794 256.782 C 325.341 257.202,325.868 257.466,325.965 257.369 C 326.191 257.142,324.729 256.027,324.200 256.022 C 323.980 256.020,324.247 256.361,324.794 256.782 M150.794 257.218 C 150.247 257.639,149.980 257.980,150.200 257.978 C 150.729 257.973,152.191 256.858,151.965 256.631 C 151.868 256.534,151.341 256.798,150.794 257.218 M248.000 256.695 C 248.000 257.084,249.614 258.119,249.851 257.882 C 249.947 257.786,249.569 257.410,249.012 257.045 C 248.456 256.680,248.000 256.522,248.000 256.695 M327.194 258.382 C 327.741 258.802,328.268 259.066,328.365 258.969 C 328.591 258.742,327.129 257.627,326.600 257.622 C 326.380 257.620,326.647 257.961,327.194 258.382 M329.020 259.558 C 329.323 259.843,333.301 262.462,337.600 265.205 C 337.930 265.416,340.900 267.354,344.200 269.512 C 350.915 273.903,351.591 274.319,351.000 273.695 C 350.437 273.100,329.264 259.200,328.921 259.200 C 328.767 259.200,328.811 259.361,329.020 259.558 M64.519 263.326 C 61.027 265.672,58.440 267.753,61.000 266.155 C 61.660 265.743,62.380 265.266,62.600 265.095 C 62.820 264.924,64.170 264.049,65.600 263.151 C 68.427 261.376,69.185 260.784,68.580 260.826 C 68.371 260.841,66.543 261.966,64.519 263.326 M142.344 262.787 C 141.825 263.219,141.543 263.579,141.717 263.587 C 141.891 263.594,142.420 263.240,142.892 262.800 C 143.999 261.769,143.579 261.758,142.344 262.787 M256.600 262.290 C 257.031 262.728,266.636 269.153,269.600 270.984 C 273.434 273.353,270.293 271.071,264.000 266.916 C 256.902 262.228,255.962 261.641,256.600 262.290 M135.798 267.050 C 132.939 268.947,130.420 270.684,130.200 270.909 C 129.605 271.517,130.580 270.939,133.882 268.729 C 135.467 267.668,136.952 266.800,137.182 266.800 C 137.412 266.800,137.600 266.665,137.601 266.500 C 137.601 266.335,138.411 265.688,139.401 265.063 C 140.943 264.089,141.510 263.600,141.098 263.600 C 141.041 263.600,138.656 265.152,135.798 267.050 M53.495 270.563 C 48.626 273.847,46.239 275.594,48.000 274.584 C 49.139 273.931,59.001 267.481,59.380 267.141 C 60.770 265.895,58.214 267.381,53.495 270.563 M271.600 272.137 C 271.600 272.377,274.741 274.402,275.091 274.387 C 275.261 274.380,275.040 274.097,274.600 273.757 C 273.644 273.018,271.600 271.915,271.600 272.137 M123.900 274.707 C 123.075 275.272,122.474 275.807,122.564 275.897 C 122.729 276.063,126.000 274.016,126.000 273.747 C 126.000 273.422,125.326 273.730,123.900 274.707 M276.224 275.387 C 276.651 275.710,277.180 275.975,277.400 275.975 C 277.620 275.975,277.451 275.710,277.024 275.387 C 276.596 275.064,276.067 274.800,275.847 274.800 C 275.627 274.800,275.796 275.064,276.224 275.387 M278.000 276.295 C 278.000 276.684,279.614 277.719,279.851 277.482 C 279.947 277.386,279.569 277.010,279.012 276.645 C 278.456 276.280,278.000 276.122,278.000 276.295 M117.694 278.863 C 115.655 280.215,114.064 281.397,114.157 281.491 C 114.251 281.584,116.097 280.477,118.261 279.030 C 120.424 277.584,122.015 276.401,121.797 276.402 C 121.579 276.404,119.732 277.511,117.694 278.863 M280.400 277.895 C 280.400 278.284,282.014 279.319,282.251 279.082 C 282.347 278.986,281.969 278.610,281.412 278.245 C 280.856 277.880,280.400 277.722,280.400 277.895 M359.020 279.148 C 359.372 279.470,367.176 284.687,368.300 285.352 C 368.575 285.514,368.800 285.485,368.800 285.288 C 368.800 285.090,368.395 284.721,367.900 284.467 C 366.886 283.948,366.682 283.817,362.314 280.900 C 359.476 279.005,358.013 278.227,359.020 279.148 M282.805 279.494 C 282.811 279.879,285.616 281.717,285.846 281.487 C 285.940 281.394,285.293 280.838,284.408 280.253 C 283.524 279.668,282.802 279.326,282.805 279.494 M38.900 280.088 C 38.405 280.327,38.000 280.679,38.000 280.870 C 38.000 281.062,38.450 280.924,39.000 280.563 C 40.467 279.602,40.416 279.357,38.900 280.088 M33.366 283.796 C 31.185 285.224,29.182 286.575,28.915 286.798 C 28.648 287.021,27.973 287.412,27.415 287.666 C 26.857 287.920,26.400 288.302,26.400 288.513 C 26.400 288.756,26.584 288.759,26.900 288.519 C 27.175 288.311,29.695 286.646,32.500 284.819 C 37.036 281.865,37.949 281.200,37.466 281.200 C 37.392 281.200,35.547 282.368,33.366 283.796 M112.394 282.418 C 111.847 282.839,111.580 283.180,111.800 283.178 C 112.329 283.173,113.791 282.058,113.565 281.831 C 113.468 281.734,112.941 281.998,112.394 282.418 M286.400 281.895 C 286.400 282.284,288.014 283.319,288.251 283.082 C 288.347 282.986,287.969 282.610,287.412 282.245 C 286.856 281.880,286.400 281.722,286.400 281.895 M105.488 286.874 C 102.457 288.873,100.055 290.588,100.150 290.684 C 100.301 290.835,107.342 286.309,108.685 285.198 C 108.952 284.977,109.627 284.588,110.185 284.334 C 110.743 284.080,111.200 283.720,111.200 283.536 C 111.200 283.075,111.604 282.839,105.488 286.874 M288.800 283.349 C 288.800 283.534,297.109 289.117,298.400 289.800 C 299.888 290.587,297.893 289.102,294.000 286.525 C 289.032 283.236,288.800 283.094,288.800 283.349 M369.994 286.382 C 370.541 286.802,371.068 287.066,371.165 286.969 C 371.391 286.742,369.929 285.627,369.400 285.622 C 369.180 285.620,369.447 285.961,369.994 286.382 M372.394 287.982 C 372.941 288.402,373.468 288.666,373.565 288.569 C 373.791 288.342,372.329 287.227,371.800 287.222 C 371.580 287.220,371.847 287.561,372.394 287.982 M24.629 289.409 C 24.205 289.729,23.938 290.071,24.035 290.169 C 24.132 290.266,24.659 290.002,25.206 289.582 C 25.753 289.161,26.020 288.820,25.800 288.822 C 25.580 288.824,25.053 289.088,24.629 289.409 M374.794 289.582 C 375.341 290.002,375.868 290.266,375.965 290.169 C 376.191 289.942,374.729 288.827,374.200 288.822 C 373.980 288.820,374.247 289.161,374.794 289.582 M22.229 291.009 C 21.805 291.329,21.538 291.671,21.635 291.769 C 21.732 291.866,22.259 291.602,22.806 291.182 C 23.353 290.761,23.620 290.420,23.400 290.422 C 23.180 290.424,22.653 290.688,22.229 291.009 M377.194 291.182 C 377.741 291.602,378.268 291.866,378.365 291.769 C 378.591 291.542,377.129 290.427,376.600 290.422 C 376.380 290.420,376.647 290.761,377.194 291.182 M19.829 292.609 C 19.405 292.929,19.138 293.271,19.235 293.369 C 19.332 293.466,19.859 293.202,20.406 292.782 C 20.953 292.361,21.220 292.020,21.000 292.022 C 20.780 292.024,20.253 292.288,19.829 292.609 M379.594 292.782 C 380.141 293.202,380.668 293.466,380.765 293.369 C 380.991 293.142,379.529 292.027,379.000 292.022 C 378.780 292.020,379.047 292.361,379.594 292.782 M304.000 293.333 C 304.000 293.651,324.858 307.276,325.051 307.083 C 325.153 306.980,323.923 306.064,322.318 305.047 C 318.740 302.777,319.534 303.293,311.600 298.090 C 303.862 293.015,304.000 293.101,304.000 293.333 M16.692 294.683 C 15.863 295.252,15.262 295.795,15.356 295.889 C 15.527 296.060,18.800 294.024,18.800 293.747 C 18.800 293.404,18.106 293.713,16.692 294.683 M382.800 294.695 C 382.800 295.084,384.414 296.119,384.651 295.882 C 384.747 295.786,384.369 295.410,383.812 295.045 C 383.256 294.680,382.800 294.522,382.800 294.695 M86.400 299.439 C 81.301 302.810,78.517 304.826,80.400 303.786 C 81.347 303.262,91.757 296.336,92.180 295.949 C 93.156 295.054,91.762 295.895,86.400 299.439 M13.600 296.820 L 12.600 297.622 13.700 297.147 C 14.305 296.885,14.800 296.520,14.800 296.336 C 14.800 295.879,14.745 295.902,13.600 296.820 M6.998 301.050 C 4.139 302.947,1.620 304.684,1.400 304.909 C 0.787 305.535,1.789 304.932,5.685 302.328 C 7.601 301.048,9.264 300.000,9.380 300.000 C 9.496 300.000,9.908 299.733,10.295 299.408 C 10.683 299.082,11.360 298.547,11.800 298.220 C 12.240 297.893,12.509 297.620,12.398 297.613 C 12.286 297.606,9.856 299.152,6.998 301.050 M387.800 297.889 C 388.196 298.291,396.046 303.550,397.200 304.187 C 398.794 305.065,396.616 303.451,392.800 300.925 C 388.172 297.861,387.178 297.258,387.800 297.889 M75.875 306.254 C 73.950 307.493,72.455 308.589,72.554 308.688 C 72.715 308.848,78.418 305.220,79.380 304.345 C 80.273 303.534,79.154 304.143,75.875 306.254 M325.600 307.527 C 325.600 307.716,326.050 308.077,326.600 308.327 C 327.150 308.578,327.600 308.717,327.600 308.637 C 327.600 308.557,327.150 308.197,326.600 307.837 C 326.050 307.476,325.600 307.337,325.600 307.527 M67.194 312.018 C 66.647 312.439,66.380 312.780,66.600 312.778 C 67.129 312.773,68.591 311.658,68.365 311.431 C 68.268 311.334,67.741 311.598,67.194 312.018 M64.794 313.618 C 64.247 314.039,63.980 314.380,64.200 314.378 C 64.729 314.373,66.191 313.258,65.965 313.031 C 65.868 312.934,65.341 313.198,64.794 313.618 M58.108 317.933 C 52.841 321.434,50.750 323.010,53.800 321.178 C 55.446 320.190,60.288 317.047,61.000 316.505 C 61.220 316.337,61.895 315.945,62.500 315.632 C 63.105 315.320,63.600 314.915,63.600 314.732 C 63.600 314.258,63.883 314.093,58.108 317.933 M336.400 314.534 C 336.400 314.702,345.839 321.042,347.200 321.788 C 348.879 322.709,346.514 320.980,342.200 318.132 C 336.446 314.333,336.400 314.305,336.400 314.534 M351.600 324.520 C 351.600 324.803,356.065 327.668,356.237 327.496 C 356.326 327.407,355.544 326.792,354.500 326.128 C 352.007 324.546,351.600 324.320,351.600 324.520 M42.104 328.427 C 40.735 329.321,39.502 330.236,39.364 330.459 C 39.226 330.682,40.393 330.013,41.957 328.973 C 44.443 327.320,45.099 326.800,44.697 326.800 C 44.640 326.800,43.473 327.532,42.104 328.427 M357.424 328.587 C 357.851 328.910,358.380 329.175,358.600 329.175 C 358.820 329.175,358.651 328.910,358.224 328.587 C 357.796 328.264,357.267 328.000,357.047 328.000 C 356.827 328.000,356.996 328.264,357.424 328.587 M359.200 329.573 C 359.200 329.808,359.346 330.000,359.525 330.000 C 359.703 330.000,360.243 330.367,360.725 330.816 C 361.206 331.264,361.600 331.456,361.600 331.243 C 361.600 331.029,361.060 330.470,360.400 330.000 C 359.740 329.530,359.200 329.338,359.200 329.573 " stroke="none" fill="#5f61a7" fill-rule="evenodd"></path><path id="path3" d="M38.800 68.732 C 38.800 68.915,39.250 69.306,39.800 69.600 C 40.350 69.894,40.800 70.285,40.800 70.468 C 40.800 70.650,41.036 70.800,41.325 70.800 C 41.613 70.800,42.236 71.160,42.708 71.600 C 43.180 72.040,43.655 72.400,43.763 72.400 C 43.988 72.400,54.997 79.555,61.076 83.653 C 63.319 85.164,65.344 86.400,65.576 86.400 C 65.809 86.400,66.000 86.580,66.000 86.800 C 66.000 87.020,66.270 87.200,66.600 87.200 C 66.930 87.200,67.200 87.380,67.200 87.600 C 67.200 87.820,67.470 88.000,67.800 88.000 C 68.130 88.000,68.400 88.180,68.400 88.400 C 68.400 88.620,68.670 88.800,69.000 88.800 C 69.330 88.800,69.600 88.980,69.600 89.200 C 69.600 89.420,69.870 89.600,70.200 89.600 C 70.530 89.600,70.800 89.780,70.800 90.000 C 70.800 90.220,71.070 90.400,71.400 90.400 C 71.730 90.400,72.000 90.558,72.000 90.751 C 72.000 90.945,72.540 91.327,73.200 91.600 C 73.860 91.873,74.400 92.255,74.400 92.449 C 74.400 92.642,74.636 92.800,74.925 92.800 C 75.213 92.800,75.798 93.115,76.225 93.500 C 76.651 93.885,77.495 94.455,78.100 94.768 C 78.705 95.080,79.200 95.485,79.200 95.668 C 79.200 95.850,79.404 96.000,79.653 96.000 C 79.902 96.000,84.320 98.790,89.470 102.200 C 94.620 105.610,98.924 108.400,99.034 108.400 C 99.144 108.400,99.589 108.731,100.023 109.136 C 100.458 109.541,101.305 110.126,101.907 110.436 C 102.508 110.746,103.349 111.315,103.775 111.700 C 104.202 112.085,104.690 112.400,104.860 112.400 C 105.030 112.400,106.623 113.390,108.400 114.600 C 110.177 115.810,111.730 116.800,111.852 116.800 C 111.974 116.800,112.552 117.168,113.137 117.617 C 113.722 118.066,115.910 119.529,118.000 120.868 C 120.090 122.207,121.860 123.459,121.933 123.651 C 122.007 123.843,122.288 124.000,122.558 124.000 C 122.828 124.000,123.398 124.315,123.825 124.700 C 124.251 125.085,125.095 125.655,125.700 125.968 C 126.305 126.280,126.800 126.685,126.800 126.868 C 126.800 127.050,126.979 127.200,127.197 127.200 C 127.416 127.200,131.297 129.630,135.822 132.600 C 140.347 135.570,144.218 138.000,144.425 138.000 C 144.631 138.000,144.800 138.150,144.800 138.332 C 144.800 138.515,145.295 138.920,145.900 139.232 C 146.505 139.545,147.349 140.115,147.775 140.500 C 148.202 140.885,148.787 141.200,149.075 141.200 C 149.364 141.200,149.600 141.380,149.600 141.600 C 149.600 141.820,149.870 142.000,150.200 142.000 C 150.530 142.000,150.800 142.180,150.800 142.400 C 150.800 142.620,151.070 142.800,151.400 142.800 C 151.730 142.800,152.000 142.980,152.000 143.200 C 152.000 143.420,152.197 143.600,152.437 143.600 C 152.677 143.600,153.286 143.915,153.791 144.300 C 154.295 144.685,155.043 145.221,155.454 145.492 C 155.864 145.762,157.370 146.755,158.800 147.698 C 161.642 149.573,164.346 151.200,164.619 151.200 C 164.715 151.200,164.839 132.570,164.896 109.800 L 165.000 68.400 101.900 68.400 C 67.195 68.400,38.800 68.550,38.800 68.732 M235.200 109.800 C 235.200 132.570,235.280 151.200,235.377 151.200 C 235.739 151.200,242.574 146.943,244.200 145.705 C 244.420 145.537,245.095 145.145,245.700 144.832 C 246.305 144.520,246.800 144.115,246.800 143.932 C 246.800 143.750,247.036 143.600,247.325 143.600 C 247.613 143.600,248.236 143.240,248.708 142.800 C 249.180 142.360,249.652 142.000,249.756 142.000 C 249.861 142.000,254.991 138.670,261.157 134.600 C 267.323 130.530,272.556 127.200,272.784 127.200 C 273.013 127.200,273.200 127.050,273.200 126.868 C 273.200 126.685,273.695 126.280,274.300 125.968 C 274.905 125.655,275.749 125.085,276.175 124.700 C 276.602 124.315,277.187 124.000,277.475 124.000 C 277.764 124.000,278.000 123.850,278.000 123.668 C 278.000 123.485,278.495 123.080,279.100 122.768 C 279.705 122.455,280.549 121.885,280.975 121.500 C 281.402 121.115,281.987 120.800,282.275 120.800 C 282.564 120.800,282.800 120.620,282.800 120.400 C 282.800 120.180,283.070 120.000,283.400 120.000 C 283.730 120.000,284.000 119.820,284.000 119.600 C 284.000 119.380,284.176 119.200,284.392 119.200 C 284.608 119.200,287.046 117.670,289.812 115.800 C 292.577 113.930,294.910 112.400,294.997 112.400 C 295.084 112.400,300.729 108.710,307.542 104.200 C 314.355 99.690,320.043 96.000,320.181 96.000 C 320.320 96.000,320.820 95.640,321.292 95.200 C 321.764 94.760,322.387 94.400,322.675 94.400 C 322.964 94.400,323.200 94.220,323.200 94.000 C 323.200 93.780,323.436 93.600,323.725 93.600 C 324.013 93.600,324.598 93.285,325.025 92.900 C 325.451 92.515,326.295 91.945,326.900 91.632 C 327.505 91.320,328.000 90.915,328.000 90.732 C 328.000 90.550,328.270 90.400,328.600 90.400 C 328.930 90.400,329.200 90.220,329.200 90.000 C 329.200 89.780,329.470 89.600,329.800 89.600 C 330.130 89.600,330.400 89.420,330.400 89.200 C 330.400 88.980,330.574 88.800,330.786 88.800 C 330.998 88.800,336.769 85.110,343.610 80.600 C 350.451 76.090,356.135 72.400,356.241 72.400 C 356.347 72.400,356.820 72.040,357.292 71.600 C 357.764 71.160,358.387 70.800,358.675 70.800 C 358.964 70.800,359.200 70.650,359.200 70.468 C 359.200 70.285,359.650 69.894,360.200 69.600 C 360.750 69.306,361.200 68.915,361.200 68.732 C 361.200 68.550,332.850 68.400,298.200 68.400 L 235.200 68.400 235.200 109.800 M0.000 129.800 L 0.000 164.800 53.700 164.792 L 107.400 164.784 95.896 157.192 C 89.568 153.016,84.213 149.600,83.996 149.600 C 83.778 149.600,83.600 149.450,83.600 149.268 C 83.600 149.085,83.105 148.680,82.500 148.368 C 81.895 148.055,81.051 147.485,80.625 147.100 C 80.198 146.715,79.613 146.400,79.325 146.400 C 79.036 146.400,78.800 146.220,78.800 146.000 C 78.800 145.780,78.575 145.600,78.300 145.600 C 78.025 145.599,77.283 145.154,76.651 144.611 C 76.019 144.067,75.164 143.516,74.751 143.384 C 74.338 143.253,74.000 142.978,74.000 142.773 C 74.000 142.568,73.730 142.400,73.400 142.400 C 73.070 142.400,72.800 142.220,72.800 142.000 C 72.800 141.780,72.530 141.600,72.200 141.600 C 71.870 141.600,71.600 141.420,71.600 141.200 C 71.600 140.980,71.405 140.800,71.166 140.800 C 70.927 140.800,65.156 137.110,58.342 132.600 C 51.528 128.090,45.783 124.400,45.576 124.400 C 45.369 124.400,45.200 124.250,45.200 124.068 C 45.200 123.885,44.705 123.480,44.100 123.168 C 43.495 122.855,42.820 122.463,42.600 122.296 C 41.580 121.520,34.462 116.938,33.498 116.436 C 32.901 116.126,32.095 115.586,31.707 115.236 C 31.318 114.886,30.505 114.345,29.900 114.032 C 29.295 113.720,28.800 113.315,28.800 113.132 C 28.800 112.950,28.564 112.800,28.275 112.800 C 27.987 112.800,27.402 112.485,26.975 112.100 C 26.549 111.715,25.705 111.145,25.100 110.832 C 24.495 110.520,24.000 110.115,24.000 109.932 C 24.000 109.750,23.822 109.600,23.605 109.600 C 23.388 109.600,18.156 106.270,11.979 102.200 C 5.801 98.130,0.579 94.800,0.373 94.800 C 0.145 94.800,0.000 108.390,0.000 129.800 M398.800 95.200 C 398.800 95.420,398.564 95.600,398.275 95.600 C 397.987 95.600,397.364 95.960,396.892 96.400 C 396.420 96.840,395.945 97.200,395.838 97.200 C 395.730 97.200,391.396 99.990,386.206 103.400 C 381.017 106.810,376.597 109.600,376.385 109.600 C 376.173 109.600,376.000 109.750,376.000 109.932 C 376.000 110.115,375.505 110.520,374.900 110.832 C 374.295 111.145,373.451 111.715,373.025 112.100 C 372.598 112.485,372.013 112.800,371.725 112.800 C 371.436 112.800,371.200 112.950,371.200 113.132 C 371.200 113.315,370.705 113.720,370.100 114.032 C 369.495 114.345,368.661 114.906,368.246 115.280 C 367.831 115.654,366.911 116.236,366.201 116.573 C 365.491 116.910,364.683 117.459,364.406 117.793 C 364.129 118.127,363.751 118.400,363.566 118.400 C 363.382 118.400,361.829 119.345,360.115 120.500 C 358.402 121.655,356.505 122.855,355.900 123.168 C 355.295 123.480,354.800 123.885,354.800 124.068 C 354.800 124.250,354.631 124.400,354.424 124.400 C 354.217 124.400,348.472 128.090,341.658 132.600 C 334.844 137.110,329.073 140.800,328.834 140.800 C 328.595 140.800,328.400 140.950,328.400 141.132 C 328.400 141.315,327.905 141.720,327.300 142.032 C 326.695 142.345,325.851 142.915,325.425 143.300 C 324.998 143.685,324.413 144.000,324.125 144.000 C 323.836 144.000,323.600 144.150,323.600 144.332 C 323.600 144.515,323.105 144.920,322.500 145.232 C 321.895 145.545,321.051 146.115,320.625 146.500 C 320.198 146.885,319.613 147.200,319.325 147.200 C 319.036 147.200,318.800 147.380,318.800 147.600 C 318.800 147.820,318.552 148.000,318.249 148.000 C 317.946 148.000,317.457 148.290,317.163 148.645 C 316.869 148.999,316.346 149.404,316.003 149.545 C 315.659 149.685,313.402 151.101,310.989 152.691 C 308.575 154.281,303.450 157.654,299.600 160.187 L 292.600 164.792 346.300 164.796 L 400.000 164.800 400.000 129.800 C 400.000 98.956,399.929 94.800,399.400 94.800 C 399.070 94.800,398.800 94.980,398.800 95.200 M0.000 270.200 C 0.000 291.655,0.145 305.200,0.374 305.200 C 0.580 305.200,4.719 302.590,9.573 299.400 C 14.426 296.210,18.578 293.600,18.799 293.600 C 19.019 293.600,19.200 293.450,19.200 293.268 C 19.200 293.085,19.695 292.680,20.300 292.368 C 20.905 292.055,21.749 291.485,22.175 291.100 C 22.602 290.715,23.104 290.400,23.292 290.400 C 23.480 290.400,24.020 290.040,24.492 289.600 C 24.964 289.160,25.587 288.800,25.875 288.800 C 26.164 288.800,26.400 288.649,26.400 288.464 C 26.400 288.280,26.857 287.920,27.415 287.666 C 27.973 287.412,28.648 287.021,28.915 286.798 C 29.182 286.575,31.200 285.228,33.400 283.806 C 35.600 282.383,37.580 281.078,37.800 280.905 C 38.020 280.733,39.235 279.971,40.500 279.212 C 41.765 278.452,42.800 277.689,42.800 277.515 C 42.800 277.342,42.983 277.200,43.207 277.200 C 43.432 277.200,47.084 274.905,51.324 272.100 C 55.564 269.295,59.326 266.820,59.683 266.600 C 60.041 266.380,62.149 264.985,64.368 263.500 C 66.587 262.015,68.582 260.800,68.801 260.800 C 69.020 260.800,69.200 260.620,69.200 260.400 C 69.200 260.180,69.470 260.000,69.800 260.000 C 70.130 260.000,70.400 259.820,70.400 259.600 C 70.400 259.380,70.670 259.200,71.000 259.200 C 71.330 259.200,71.600 259.020,71.600 258.800 C 71.600 258.580,71.870 258.400,72.200 258.400 C 72.530 258.400,72.800 258.220,72.800 258.000 C 72.800 257.780,73.070 257.600,73.400 257.600 C 73.730 257.600,74.000 257.442,74.000 257.249 C 74.000 257.055,74.540 256.673,75.200 256.400 C 75.860 256.127,76.400 255.745,76.400 255.551 C 76.400 255.358,76.593 255.200,76.828 255.200 C 77.335 255.200,80.941 252.791,81.133 252.323 C 81.207 252.145,81.434 252.000,81.638 252.000 C 81.842 252.000,87.059 248.670,93.232 244.600 C 99.405 240.530,104.623 237.200,104.828 237.200 C 105.032 237.200,105.200 237.062,105.200 236.893 C 105.200 236.724,105.695 236.278,106.300 235.903 C 107.340 235.259,104.469 235.221,53.700 235.211 L 0.000 235.200 0.000 270.200 M300.697 240.600 C 305.149 243.570,308.891 246.000,309.012 246.000 C 309.134 246.000,309.451 246.182,309.717 246.404 C 310.456 247.023,318.049 252.000,318.254 252.000 C 318.352 252.000,318.820 252.360,319.292 252.800 C 319.764 253.240,320.387 253.600,320.675 253.600 C 320.964 253.600,321.200 253.780,321.200 254.000 C 321.200 254.220,321.436 254.400,321.725 254.400 C 322.013 254.400,322.598 254.715,323.025 255.100 C 323.451 255.485,324.295 256.055,324.900 256.368 C 325.505 256.680,326.000 257.085,326.000 257.268 C 326.000 257.450,326.236 257.600,326.525 257.600 C 326.813 257.600,327.436 257.960,327.908 258.400 C 328.380 258.840,328.869 259.200,328.994 259.200 C 329.119 259.200,334.809 262.890,341.639 267.400 C 348.468 271.910,354.223 275.600,354.428 275.600 C 354.633 275.600,354.800 275.750,354.800 275.932 C 354.800 276.115,355.295 276.520,355.900 276.832 C 356.505 277.145,357.349 277.715,357.775 278.100 C 358.202 278.485,358.690 278.800,358.860 278.800 C 359.030 278.800,360.623 279.790,362.400 281.000 C 364.177 282.210,365.721 283.200,365.832 283.200 C 366.027 283.200,368.400 284.799,368.800 285.201 C 368.910 285.311,369.495 285.656,370.100 285.968 C 370.705 286.280,371.200 286.685,371.200 286.868 C 371.200 287.050,371.436 287.200,371.725 287.200 C 372.013 287.200,372.598 287.515,373.025 287.900 C 373.451 288.285,374.295 288.855,374.900 289.168 C 375.505 289.480,376.000 289.885,376.000 290.068 C 376.000 290.250,376.236 290.400,376.525 290.400 C 376.813 290.400,377.398 290.715,377.825 291.100 C 378.251 291.485,379.095 292.055,379.700 292.368 C 380.305 292.680,380.800 293.085,380.800 293.268 C 380.800 293.450,380.981 293.600,381.201 293.600 C 381.422 293.600,385.574 296.210,390.427 299.400 C 395.281 302.590,399.420 305.200,399.626 305.200 C 399.855 305.200,400.000 291.655,400.000 270.200 L 400.000 235.200 346.302 235.200 L 292.603 235.200 300.697 240.600 M162.000 250.400 C 160.790 251.259,159.679 251.970,159.532 251.981 C 159.384 251.991,157.827 252.990,156.070 254.200 C 154.313 255.410,152.762 256.400,152.621 256.400 C 152.481 256.400,151.980 256.760,151.508 257.200 C 151.036 257.640,150.413 258.000,150.125 258.000 C 149.836 258.000,149.600 258.180,149.600 258.400 C 149.600 258.620,149.330 258.800,149.000 258.800 C 148.670 258.800,148.400 258.980,148.400 259.200 C 148.400 259.420,148.130 259.600,147.800 259.600 C 147.470 259.600,147.200 259.780,147.200 260.000 C 147.200 260.220,146.964 260.400,146.675 260.400 C 146.387 260.400,145.802 260.715,145.375 261.100 C 144.949 261.485,144.105 262.055,143.500 262.368 C 142.895 262.680,142.400 263.085,142.400 263.268 C 142.400 263.450,142.207 263.600,141.972 263.600 C 141.465 263.600,137.859 266.009,137.667 266.477 C 137.593 266.655,137.373 266.800,137.178 266.800 C 136.982 266.800,133.658 268.870,129.791 271.400 C 125.925 273.930,122.605 276.000,122.414 276.000 C 122.223 276.000,122.007 276.150,121.933 276.332 C 121.789 276.691,114.582 281.600,114.199 281.600 C 114.071 281.600,113.580 281.960,113.108 282.400 C 112.636 282.840,112.013 283.200,111.725 283.200 C 111.436 283.200,111.200 283.351,111.200 283.536 C 111.200 283.720,110.743 284.080,110.185 284.334 C 109.627 284.588,108.952 284.977,108.685 285.198 C 107.418 286.246,100.362 290.800,100.005 290.800 C 99.782 290.800,99.600 290.980,99.600 291.200 C 99.600 291.420,99.364 291.600,99.075 291.600 C 98.787 291.600,98.164 291.960,97.692 292.400 C 97.220 292.840,96.748 293.200,96.645 293.200 C 96.541 293.200,91.137 296.710,84.636 301.000 C 78.134 305.290,72.632 308.800,72.408 308.800 C 72.183 308.800,72.000 308.980,72.000 309.200 C 72.000 309.420,71.730 309.600,71.400 309.600 C 71.070 309.600,70.800 309.780,70.800 310.000 C 70.800 310.220,70.530 310.400,70.200 310.400 C 69.870 310.400,69.600 310.580,69.600 310.800 C 69.600 311.020,69.330 311.200,69.000 311.200 C 68.670 311.200,68.400 311.350,68.400 311.532 C 68.400 311.715,67.905 312.120,67.300 312.432 C 66.695 312.745,65.851 313.315,65.425 313.700 C 64.998 314.085,64.413 314.400,64.125 314.400 C 63.836 314.400,63.600 314.550,63.600 314.732 C 63.600 314.915,63.105 315.320,62.500 315.632 C 61.895 315.945,61.220 316.340,61.000 316.511 C 60.780 316.682,58.890 317.918,56.800 319.257 C 47.428 325.261,38.817 331.025,38.809 331.300 C 38.804 331.465,67.261 331.600,102.047 331.600 L 165.293 331.600 165.052 330.700 C 164.919 330.205,164.808 311.575,164.805 289.300 C 164.802 267.025,164.665 248.809,164.500 248.819 C 164.335 248.830,163.210 249.541,162.000 250.400 M235.104 290.200 L 235.000 331.600 298.100 331.600 C 332.805 331.600,361.200 331.450,361.200 331.268 C 361.200 331.085,360.750 330.694,360.200 330.400 C 359.650 330.106,359.200 329.715,359.200 329.532 C 359.200 329.350,358.964 329.200,358.675 329.200 C 358.387 329.200,357.764 328.840,357.292 328.400 C 356.820 327.960,356.347 327.600,356.240 327.600 C 356.016 327.600,344.632 320.217,339.519 316.756 C 337.605 315.460,335.850 314.400,335.619 314.400 C 335.389 314.400,335.200 314.220,335.200 314.000 C 335.200 313.780,334.930 313.600,334.600 313.600 C 334.270 313.600,334.000 313.420,334.000 313.200 C 334.000 312.980,333.730 312.800,333.400 312.800 C 333.070 312.800,332.800 312.620,332.800 312.400 C 332.800 312.180,332.530 312.000,332.200 312.000 C 331.870 312.000,331.600 311.820,331.600 311.600 C 331.600 311.380,331.330 311.200,331.000 311.200 C 330.670 311.200,330.400 311.020,330.400 310.800 C 330.400 310.580,330.130 310.400,329.800 310.400 C 329.470 310.400,329.200 310.220,329.200 310.000 C 329.200 309.780,328.930 309.600,328.600 309.600 C 328.270 309.600,328.000 309.442,328.000 309.249 C 328.000 309.055,327.460 308.673,326.800 308.400 C 326.140 308.127,325.600 307.745,325.600 307.551 C 325.600 307.358,325.404 307.200,325.166 307.200 C 324.797 307.200,312.969 299.510,293.070 286.332 C 290.468 284.610,288.207 283.200,288.045 283.200 C 287.883 283.200,287.402 282.885,286.975 282.500 C 286.549 282.115,285.708 281.546,285.107 281.236 C 284.505 280.926,283.695 280.386,283.307 280.036 C 282.918 279.686,282.105 279.145,281.500 278.832 C 280.895 278.520,280.400 278.115,280.400 277.932 C 280.400 277.750,280.164 277.600,279.875 277.600 C 279.587 277.600,279.002 277.285,278.575 276.900 C 278.149 276.515,277.305 275.945,276.700 275.632 C 276.095 275.320,275.600 274.915,275.600 274.732 C 275.600 274.550,275.412 274.400,275.181 274.400 C 274.951 274.400,270.529 271.610,265.355 268.200 C 260.182 264.790,255.863 262.000,255.758 262.000 C 255.652 262.000,255.180 261.640,254.708 261.200 C 254.236 260.760,253.613 260.400,253.325 260.400 C 253.036 260.400,252.800 260.220,252.800 260.000 C 252.800 259.780,252.530 259.600,252.200 259.600 C 251.870 259.600,251.600 259.420,251.600 259.200 C 251.600 258.980,251.330 258.800,251.000 258.800 C 250.670 258.800,250.400 258.620,250.400 258.400 C 250.400 258.180,250.164 258.000,249.875 258.000 C 249.587 258.000,248.964 257.640,248.492 257.200 C 248.020 256.760,247.543 256.400,247.432 256.400 C 247.321 256.400,245.777 255.410,244.000 254.200 C 242.223 252.990,240.676 252.000,240.563 252.000 C 240.449 252.000,239.296 251.280,238.000 250.400 C 236.704 249.520,235.546 248.800,235.426 248.800 C 235.306 248.800,235.161 267.430,235.104 290.200 " stroke="none" fill="#44449c" fill-rule="evenodd"></path><path id="path4" d="M24.800 68.800 C 24.800 69.020,25.790 69.200,27.000 69.200 C 28.210 69.200,29.200 69.020,29.200 68.800 C 29.200 68.580,28.210 68.400,27.000 68.400 C 25.790 68.400,24.800 68.580,24.800 68.800 M37.600 68.761 C 37.600 68.960,38.545 69.748,39.700 70.512 C 57.724 82.443,69.303 90.000,69.558 90.000 C 69.733 90.000,70.202 90.360,70.600 90.800 C 70.998 91.240,71.468 91.600,71.644 91.600 C 71.820 91.600,78.137 95.675,85.682 100.655 C 103.274 112.268,115.850 120.478,117.500 121.426 C 118.215 121.836,118.800 122.314,118.800 122.486 C 118.800 122.659,118.969 122.800,119.176 122.800 C 119.383 122.800,126.230 127.210,134.392 132.600 C 142.554 137.990,149.322 142.400,149.433 142.400 C 149.543 142.400,149.851 142.592,150.117 142.827 C 151.493 144.041,164.686 152.381,165.200 152.361 C 165.733 152.339,165.733 152.312,165.200 152.111 C 164.578 151.877,152.500 143.987,137.601 134.083 C 132.870 130.938,128.733 128.248,128.408 128.104 C 128.082 127.961,118.272 121.562,106.608 113.885 C 94.943 106.208,84.860 99.584,84.200 99.165 C 83.540 98.747,75.742 93.633,66.872 87.802 C 58.001 81.971,50.591 77.200,50.405 77.200 C 50.219 77.200,50.007 77.065,49.933 76.900 C 49.792 76.582,49.035 76.068,42.500 71.852 C 40.245 70.397,38.400 69.025,38.400 68.804 C 38.400 68.582,38.220 68.400,38.000 68.400 C 37.780 68.400,37.600 68.562,37.600 68.761 M165.793 109.800 C 165.793 132.680,165.841 141.981,165.900 130.469 C 165.959 118.958,165.959 100.238,165.900 88.869 C 165.841 77.501,165.793 86.920,165.793 109.800 M234.160 69.200 C 234.286 69.750,234.392 88.695,234.395 111.300 C 234.399 145.663,234.489 152.400,234.943 152.400 C 235.242 152.400,237.627 150.991,240.243 149.269 C 242.860 147.547,249.140 143.420,254.200 140.098 C 259.260 136.776,267.090 131.608,271.600 128.614 C 276.110 125.620,280.160 123.003,280.600 122.800 C 281.040 122.597,285.002 120.038,289.403 117.115 C 293.805 114.192,301.095 109.379,305.603 106.419 C 310.112 103.460,317.018 98.915,320.950 96.319 C 324.883 93.724,328.159 91.600,328.232 91.600 C 328.335 91.600,343.533 81.606,360.300 70.512 C 362.269 69.209,362.920 68.400,362.000 68.400 C 361.780 68.400,361.600 68.582,361.600 68.806 C 361.600 69.183,351.110 76.300,348.685 77.568 C 348.088 77.880,347.600 78.285,347.600 78.468 C 347.600 78.650,347.429 78.800,347.220 78.800 C 347.011 78.800,340.666 82.872,333.120 87.849 C 325.574 92.826,318.410 97.534,317.200 98.312 C 311.172 102.187,269.453 129.551,268.975 129.943 C 268.741 130.135,268.125 130.519,267.606 130.797 C 267.087 131.075,259.718 135.891,251.231 141.501 C 242.744 147.110,235.575 151.786,235.300 151.892 C 234.902 152.046,234.799 143.651,234.794 110.743 C 234.790 81.993,234.657 69.217,234.359 68.800 C 234.023 68.329,233.980 68.416,234.160 69.200 M371.000 68.800 C 370.847 69.048,371.588 69.200,372.953 69.200 C 374.163 69.200,375.264 69.020,375.400 68.800 C 375.553 68.552,374.812 68.400,373.447 68.400 C 372.237 68.400,371.136 68.580,371.000 68.800 M20.800 69.600 C 20.800 69.820,21.340 70.000,22.000 70.000 C 22.660 70.000,23.200 69.820,23.200 69.600 C 23.200 69.380,22.660 69.200,22.000 69.200 C 21.340 69.200,20.800 69.380,20.800 69.600 M376.800 69.600 C 376.800 69.820,377.340 70.000,378.000 70.000 C 378.660 70.000,379.200 69.820,379.200 69.600 C 379.200 69.380,378.660 69.200,378.000 69.200 C 377.340 69.200,376.800 69.380,376.800 69.600 M18.400 70.400 C 18.400 70.620,18.040 70.800,17.600 70.800 C 17.160 70.800,16.800 70.980,16.800 71.200 C 16.800 71.420,16.440 71.600,16.000 71.600 C 15.560 71.600,15.200 71.780,15.200 72.000 C 15.200 72.220,15.459 72.400,15.776 72.400 C 16.093 72.400,16.464 72.220,16.600 72.000 C 16.736 71.780,17.197 71.600,17.624 71.600 C 18.051 71.600,18.400 71.420,18.400 71.200 C 18.400 70.980,18.760 70.800,19.200 70.800 C 19.640 70.800,20.000 70.620,20.000 70.400 C 20.000 70.180,19.640 70.000,19.200 70.000 C 18.760 70.000,18.400 70.180,18.400 70.400 M379.733 70.532 C 379.733 70.872,380.067 71.000,380.662 70.886 C 381.173 70.788,381.492 70.549,381.372 70.354 C 381.029 69.799,379.733 69.940,379.733 70.532 M13.221 73.171 C 12.915 73.595,12.291 74.055,11.833 74.194 C 11.009 74.444,11.009 74.450,11.800 74.769 C 12.352 74.991,12.640 74.922,12.729 74.545 C 12.800 74.245,13.096 74.000,13.387 74.000 C 13.828 74.000,14.400 73.191,14.400 72.567 C 14.400 72.131,13.719 72.480,13.221 73.171 M392.400 78.973 C 392.400 79.288,392.760 79.660,393.200 79.800 C 393.640 79.940,394.000 80.312,394.000 80.627 C 394.000 80.942,394.180 81.200,394.400 81.200 C 394.620 81.200,394.800 81.007,394.800 80.771 C 394.800 80.179,393.751 79.182,393.448 79.486 C 393.311 79.622,393.200 79.433,393.200 79.067 C 393.200 78.700,393.020 78.400,392.800 78.400 C 392.580 78.400,392.400 78.658,392.400 78.973 M394.800 82.157 C 394.800 82.718,395.950 83.383,396.305 83.028 C 396.508 82.825,395.413 81.600,395.029 81.600 C 394.903 81.600,394.800 81.851,394.800 82.157 M2.000 86.200 C 2.000 86.976,2.647 86.976,2.945 86.200 C 3.085 85.835,2.945 85.600,2.587 85.600 C 2.264 85.600,2.000 85.870,2.000 86.200 M397.200 86.200 C 397.200 86.530,397.380 86.800,397.600 86.800 C 397.820 86.800,398.000 86.530,398.000 86.200 C 398.000 85.870,397.820 85.600,397.600 85.600 C 397.380 85.600,397.200 85.870,397.200 86.200 M1.200 87.800 C 1.200 88.130,1.380 88.400,1.600 88.400 C 1.820 88.400,2.000 88.130,2.000 87.800 C 2.000 87.470,1.820 87.200,1.600 87.200 C 1.380 87.200,1.200 87.470,1.200 87.800 M398.000 87.800 C 398.000 88.130,398.180 88.400,398.400 88.400 C 398.620 88.400,398.800 88.130,398.800 87.800 C 398.800 87.470,398.620 87.200,398.400 87.200 C 398.180 87.200,398.000 87.470,398.000 87.800 M0.400 90.400 C 0.400 90.840,0.580 91.200,0.800 91.200 C 1.020 91.200,1.200 90.840,1.200 90.400 C 1.200 89.960,1.020 89.600,0.800 89.600 C 0.580 89.600,0.400 89.960,0.400 90.400 M398.800 90.400 C 398.800 90.840,398.980 91.200,399.200 91.200 C 399.420 91.200,399.600 90.840,399.600 90.400 C 399.600 89.960,399.420 89.600,399.200 89.600 C 398.980 89.600,398.800 89.960,398.800 90.400 M0.030 93.400 C 0.014 93.934,0.566 94.520,1.688 95.161 C 2.613 95.689,6.706 98.315,10.785 100.996 C 21.915 108.313,42.819 122.019,62.400 134.838 C 64.050 135.918,72.113 141.211,80.318 146.601 C 88.523 151.990,95.408 156.400,95.618 156.400 C 95.828 156.400,96.000 156.541,96.000 156.714 C 96.000 156.886,96.585 157.364,97.300 157.775 C 100.441 159.582,108.400 164.946,108.400 165.256 C 108.400 165.444,83.965 165.643,54.100 165.700 L -0.200 165.803 54.000 165.895 C 103.248 165.979,110.045 165.877,109.188 165.065 C 108.507 164.419,79.091 145.200,78.784 145.200 C 78.573 145.200,78.400 145.050,78.400 144.868 C 78.400 144.685,77.906 144.280,77.302 143.968 C 76.698 143.655,70.893 139.904,64.402 135.631 C 53.230 128.277,32.097 114.422,30.800 113.602 C 30.470 113.393,23.758 108.987,15.885 103.811 C 8.012 98.635,1.425 94.400,1.247 94.400 C 1.068 94.400,0.727 93.995,0.488 93.500 C 0.085 92.663,0.052 92.656,0.030 93.400 M399.450 93.500 C 399.283 93.995,398.983 94.400,398.783 94.400 C 398.584 94.400,391.659 98.855,383.395 104.300 C 375.131 109.745,365.319 116.180,361.590 118.600 C 357.861 121.020,347.783 127.635,339.193 133.300 C 330.603 138.965,323.483 143.600,323.370 143.600 C 323.258 143.600,322.811 143.931,322.377 144.336 C 321.942 144.741,321.095 145.326,320.493 145.636 C 319.529 146.134,291.291 164.620,290.812 165.068 C 289.945 165.876,296.795 165.979,346.000 165.895 L 400.200 165.803 345.900 165.700 C 316.035 165.643,291.601 165.463,291.603 165.299 C 291.604 165.134,293.539 163.746,295.903 162.213 C 298.266 160.680,307.220 154.777,315.800 149.096 C 324.380 143.415,331.674 138.639,332.008 138.483 C 332.343 138.327,333.603 137.545,334.808 136.746 C 349.558 126.957,377.605 108.604,378.300 108.285 C 378.795 108.057,379.200 107.720,379.200 107.536 C 379.200 107.351,379.371 107.200,379.581 107.200 C 379.790 107.200,384.296 104.333,389.593 100.829 C 394.891 97.325,399.420 94.393,399.658 94.314 C 399.896 94.235,400.015 93.816,399.923 93.385 C 399.766 92.654,399.734 92.661,399.450 93.500 M54.178 234.798 L 108.556 235.000 102.193 239.200 C 98.694 241.510,95.329 243.647,94.715 243.950 C 94.102 244.252,93.600 244.657,93.600 244.850 C 93.600 245.042,93.428 245.200,93.218 245.200 C 92.680 245.200,76.319 256.052,76.533 256.267 C 76.630 256.364,83.075 252.243,90.855 247.110 C 98.635 241.976,105.945 237.166,107.100 236.421 C 108.255 235.675,109.200 234.916,109.200 234.733 C 109.200 234.550,84.585 234.444,54.500 234.498 L -0.200 234.596 54.178 234.798 M290.800 234.733 C 290.800 234.916,291.745 235.675,292.900 236.421 C 294.055 237.166,301.351 241.967,309.113 247.088 C 316.875 252.210,323.378 256.400,323.564 256.400 C 323.750 256.400,324.143 256.690,324.437 257.045 C 324.731 257.399,325.266 257.804,325.626 257.945 C 326.212 258.174,348.506 272.784,364.621 283.500 C 368.012 285.755,370.867 287.600,370.965 287.600 C 371.063 287.600,377.273 291.650,384.765 296.600 C 392.257 301.550,398.542 305.600,398.732 305.600 C 398.922 305.600,399.273 306.005,399.512 306.500 L 399.946 307.400 399.973 306.500 C 399.988 306.005,399.843 305.600,399.651 305.600 C 399.459 305.600,396.084 303.485,392.151 300.900 C 388.218 298.315,384.505 295.945,383.900 295.632 C 383.295 295.320,382.800 294.915,382.800 294.732 C 382.800 294.550,382.632 294.400,382.427 294.400 C 382.222 294.400,372.817 288.318,361.527 280.884 C 350.237 273.449,340.280 266.930,339.400 266.396 C 338.520 265.862,337.620 265.285,337.400 265.114 C 335.979 264.010,304.678 243.600,304.405 243.600 C 304.219 243.600,304.007 243.453,303.933 243.274 C 303.860 243.094,301.460 241.443,298.600 239.606 C 295.740 237.768,292.972 235.935,292.448 235.533 C 291.524 234.825,293.125 234.800,345.848 234.700 L 400.200 234.597 345.500 234.499 C 315.415 234.444,290.800 234.550,290.800 234.733 M162.216 249.226 C 160.904 250.096,159.644 251.016,159.416 251.268 C 158.967 251.765,161.813 250.180,162.800 249.384 C 163.130 249.118,163.940 248.615,164.600 248.266 C 165.260 247.917,165.530 247.634,165.200 247.637 C 164.870 247.640,163.527 248.355,162.216 249.226 M234.395 288.700 C 234.392 311.305,234.286 330.250,234.160 330.800 C 233.980 331.584,234.023 331.671,234.359 331.200 C 234.657 330.783,234.790 318.020,234.794 289.300 C 234.797 266.585,234.907 248.000,235.038 248.000 C 235.169 248.000,235.754 248.330,236.338 248.734 C 237.875 249.797,238.400 250.076,238.400 249.829 C 238.400 249.521,235.303 247.600,234.808 247.600 C 234.533 247.600,234.398 261.036,234.395 288.700 M165.793 290.200 C 165.793 313.080,165.841 322.381,165.900 310.869 C 165.959 299.358,165.959 280.638,165.900 269.269 C 165.841 257.901,165.793 267.320,165.793 290.200 M239.000 250.321 C 239.342 250.680,264.370 267.252,270.200 270.980 C 273.174 272.882,278.883 276.621,296.400 288.138 C 305.090 293.851,313.550 299.391,315.200 300.449 C 316.850 301.507,318.391 302.534,318.625 302.732 C 318.859 302.930,319.434 303.297,319.903 303.548 C 320.372 303.799,327.157 308.233,334.982 313.402 C 342.807 318.571,349.387 322.800,349.604 322.800 C 349.822 322.800,350.000 322.941,350.000 323.114 C 350.000 323.286,350.585 323.763,351.300 324.173 C 354.537 326.028,361.600 330.851,361.600 331.206 C 361.600 331.423,361.780 331.600,362.000 331.600 C 362.220 331.600,362.400 331.440,362.400 331.245 C 362.400 330.848,334.583 312.400,333.983 312.400 C 333.772 312.400,333.600 312.253,333.600 312.074 C 333.600 311.894,332.850 311.326,331.933 310.811 C 331.017 310.295,329.262 309.207,328.033 308.392 C 315.433 300.033,286.857 281.300,286.394 281.095 C 286.067 280.950,278.454 275.965,269.476 270.016 C 260.498 264.067,252.983 259.200,252.776 259.200 C 252.569 259.200,252.400 259.049,252.400 258.864 C 252.400 258.680,251.943 258.320,251.385 258.066 C 250.827 257.812,250.152 257.412,249.885 257.179 C 248.418 255.893,238.136 249.415,239.000 250.321 M152.853 255.403 C 149.692 257.491,146.969 259.200,146.802 259.200 C 146.635 259.200,146.271 259.473,145.994 259.807 C 145.717 260.141,144.885 260.702,144.145 261.053 C 143.405 261.404,142.800 261.861,142.800 262.069 C 142.800 262.277,143.025 262.311,143.300 262.145 C 144.774 261.255,158.258 252.269,158.580 251.962 C 159.498 251.088,158.238 251.844,152.853 255.403 M69.400 260.620 C 65.880 262.936,62.730 265.010,62.400 265.227 C 57.340 268.562,48.298 274.418,47.300 275.006 C 46.585 275.428,46.000 275.914,46.000 276.086 C 46.000 276.259,45.824 276.400,45.610 276.400 C 45.086 276.400,28.731 287.264,28.940 287.473 C 29.030 287.563,34.751 283.911,41.652 279.357 C 48.553 274.803,56.270 269.724,58.800 268.071 C 61.330 266.418,65.745 263.520,68.612 261.632 C 71.479 259.745,74.314 257.945,74.912 257.632 C 75.772 257.184,76.417 256.382,75.900 256.404 C 75.845 256.407,72.920 258.304,69.400 260.620 M135.200 266.853 C 127.447 272.011,111.069 282.786,108.200 284.617 C 101.407 288.951,95.381 292.982,95.267 293.267 C 95.193 293.450,94.974 293.600,94.780 293.600 C 94.585 293.600,88.074 297.785,80.311 302.900 C 72.548 308.015,65.702 312.455,65.098 312.768 C 64.494 313.080,64.000 313.485,64.000 313.668 C 64.000 313.850,63.823 314.000,63.607 314.000 C 62.600 314.000,37.295 331.029,37.700 331.434 C 37.836 331.570,38.426 331.238,39.010 330.696 C 39.595 330.154,41.050 329.100,42.244 328.355 C 43.438 327.610,48.780 324.120,54.115 320.600 C 63.815 314.200,72.705 308.376,85.300 300.167 C 91.613 296.052,100.210 290.398,117.789 278.800 C 121.957 276.050,125.550 273.727,125.772 273.637 C 126.310 273.421,141.694 263.224,142.180 262.761 C 143.438 261.565,141.004 262.992,135.200 266.853 M21.904 291.800 C 18.443 294.110,15.444 296.000,15.239 296.000 C 15.034 296.000,14.807 296.137,14.733 296.304 C 14.660 296.471,13.565 297.229,12.300 297.988 C 11.035 298.748,10.000 299.522,10.000 299.708 C 10.000 300.134,9.584 300.390,18.600 294.419 C 22.780 291.651,26.695 289.134,27.300 288.826 C 28.175 288.380,28.810 287.600,28.298 287.600 C 28.242 287.600,25.365 289.490,21.904 291.800 M5.200 302.628 C 3.110 304.047,1.085 305.308,0.700 305.431 C 0.300 305.558,0.014 306.027,0.032 306.527 C 0.049 307.007,0.157 307.167,0.271 306.883 C 0.385 306.598,2.396 305.090,4.739 303.530 C 9.333 300.473,9.978 299.986,9.380 300.025 C 9.171 300.038,7.290 301.210,5.200 302.628 M0.400 309.600 C 0.400 310.040,0.580 310.400,0.800 310.400 C 1.020 310.400,1.200 310.040,1.200 309.600 C 1.200 309.160,1.020 308.800,0.800 308.800 C 0.580 308.800,0.400 309.160,0.400 309.600 M398.800 309.600 C 398.800 310.040,398.980 310.400,399.200 310.400 C 399.420 310.400,399.600 310.040,399.600 309.600 C 399.600 309.160,399.420 308.800,399.200 308.800 C 398.980 308.800,398.800 309.160,398.800 309.600 M1.200 312.200 C 1.200 312.530,1.380 312.800,1.600 312.800 C 1.820 312.800,2.000 312.530,2.000 312.200 C 2.000 311.870,1.820 311.600,1.600 311.600 C 1.380 311.600,1.200 311.870,1.200 312.200 M398.000 312.200 C 398.000 312.530,398.180 312.800,398.400 312.800 C 398.620 312.800,398.800 312.530,398.800 312.200 C 398.800 311.870,398.620 311.600,398.400 311.600 C 398.180 311.600,398.000 311.870,398.000 312.200 M2.000 313.800 C 2.000 314.130,2.180 314.400,2.400 314.400 C 2.620 314.400,2.800 314.130,2.800 313.800 C 2.800 313.470,2.620 313.200,2.400 313.200 C 2.180 313.200,2.000 313.470,2.000 313.800 M397.200 313.800 C 397.200 314.130,397.380 314.400,397.600 314.400 C 397.820 314.400,398.000 314.130,398.000 313.800 C 398.000 313.470,397.820 313.200,397.600 313.200 C 397.380 313.200,397.200 313.470,397.200 313.800 M3.600 317.029 C 3.600 317.325,4.675 318.400,4.971 318.400 C 5.489 318.400,5.152 317.267,4.567 317.043 C 3.781 316.741,3.600 316.738,3.600 317.029 M5.200 319.229 C 5.200 319.912,6.277 320.802,7.071 320.775 C 7.664 320.754,7.632 320.682,6.900 320.388 C 6.405 320.189,6.000 319.750,6.000 319.413 C 6.000 319.076,5.820 318.800,5.600 318.800 C 5.380 318.800,5.200 318.993,5.200 319.229 M385.833 326.657 C 385.475 327.591,385.854 327.803,386.581 327.076 C 387.347 326.310,387.365 326.000,386.643 326.000 C 386.336 326.000,385.972 326.296,385.833 326.657 M383.400 328.000 C 383.264 328.220,382.803 328.400,382.376 328.400 C 381.949 328.400,381.600 328.580,381.600 328.800 C 381.600 329.020,381.240 329.200,380.800 329.200 C 380.360 329.200,380.000 329.380,380.000 329.600 C 380.000 329.820,380.259 330.000,380.576 330.000 C 380.893 330.000,381.264 329.820,381.400 329.600 C 381.536 329.380,381.997 329.200,382.424 329.200 C 382.851 329.200,383.200 329.020,383.200 328.800 C 383.200 328.580,383.560 328.400,384.000 328.400 C 384.440 328.400,384.800 328.220,384.800 328.000 C 384.800 327.780,384.541 327.600,384.224 327.600 C 383.907 327.600,383.536 327.780,383.400 328.000 M19.100 329.076 C 18.142 329.326,18.215 330.000,19.200 330.000 C 19.644 330.000,20.000 329.733,20.000 329.400 C 20.000 329.070,19.955 328.821,19.900 328.846 C 19.845 328.872,19.485 328.975,19.100 329.076 M20.800 330.400 C 20.800 330.620,21.340 330.800,22.000 330.800 C 22.660 330.800,23.200 330.620,23.200 330.400 C 23.200 330.180,22.660 330.000,22.000 330.000 C 21.340 330.000,20.800 330.180,20.800 330.400 M376.800 330.400 C 376.800 330.620,377.239 330.800,377.776 330.800 C 378.313 330.800,378.864 330.620,379.000 330.400 C 379.144 330.167,378.737 330.000,378.024 330.000 C 377.351 330.000,376.800 330.180,376.800 330.400 M24.800 331.200 C 24.800 331.420,25.790 331.600,27.000 331.600 C 28.210 331.600,29.200 331.420,29.200 331.200 C 29.200 330.980,28.210 330.800,27.000 330.800 C 25.790 330.800,24.800 330.980,24.800 331.200 M370.800 331.200 C 370.800 331.420,371.790 331.600,373.000 331.600 C 374.210 331.600,375.200 331.420,375.200 331.200 C 375.200 330.980,374.210 330.800,373.000 330.800 C 371.790 330.800,370.800 330.980,370.800 331.200 " stroke="none" fill="#949cc4" fill-rule="evenodd"></path></g></svg>