<svg id="Capa_1" enable-background="new 0 0 496.389 496.389" height="512" viewBox="0 0 496.389 496.389" width="512" xmlns="http://www.w3.org/2000/svg"><g><path d="m168.638 29.559c-84.99 0-151.982 72.369-145.435 157.106l3.012 38.975c.161 2.08-.346 4.156-1.448 5.928l-8.024 12.91c-10.943 17.605-16.743 37.922-16.743 58.653 0 2.995 2.428 5.422 5.422 5.422h24.663l11.189 65.038c1.911 11.106 11.521 19.236 22.79 19.28l65.755.257c10.466.041 18.929 8.537 18.929 19.004v39.867c0 8.323 6.774 15.057 15.098 15.007l45.976-.169 9.269-6.355h64.243l3.081 6.073.257-.001-.07-136.437 30.387-101.012c29.909-99.422-44.528-199.546-148.351-199.546z" fill="#fd8087"/><path d="m189.062 454.504v-46.127c0-23.592-19.076-42.744-42.669-42.836l-42.015-.164c-11.269-.044-20.879-8.174-22.79-19.28l-8.569-49.808c-1.514-8.8-9.145-15.23-18.074-15.23h-9.209c-2.995 0-5.422-2.428-5.422-5.422 0-20.73 5.8-41.047 16.743-58.654l8.024-12.91c1.101-1.772 1.608-3.848 1.447-5.928l-3.012-38.975c-3.511-45.44 14.133-87.33 44.352-116.404-53.683 24.635-89.537 80.844-84.665 143.899l3.012 38.975c.161 2.08-.346 4.156-1.448 5.928l-8.024 12.91c-10.943 17.605-16.743 37.922-16.743 58.653 0 2.995 2.428 5.422 5.422 5.422h24.663l11.189 65.038c1.911 11.106 11.521 19.236 22.79 19.28l65.755.257c10.466.041 18.929 8.537 18.929 19.003v39.867c0 8.324 6.774 15.057 15.098 15.007l31.657-.191c-3.888-2.71-6.441-7.207-6.441-12.31z" fill="#fe646f"/><path d="m479.646 244.301-8.024-12.91c-1.101-1.771-1.608-3.848-1.448-5.928l3.012-38.975c6.548-84.737-60.445-157.106-145.434-157.106-103.823 0-178.26 100.124-148.351 199.546l30.387 101.012.036 136.788h.106c.208-.211 10.493-10.636 10.493-10.636h60.519l5.596 10.7 46.006.038c8.323.05 15.098-6.683 15.098-15.007v-39.867c0-10.466 8.463-18.962 18.929-19.003l65.755-.257c11.269-.044 20.879-8.174 22.79-19.28l11.189-65.038h24.663c2.995 0 5.422-2.428 5.422-5.422-.001-20.731-5.801-41.048-16.744-58.655z" fill="#99e6fc"/><path d="m286.536 330.592 30.387-101.012c21.416-71.193-10.803-143.352-68.871-178.245-58.068 34.893-90.033 107.052-68.616 178.245l30.387 101.012v136.244l38.357.136 38.357-.18v-136.2z" fill="#fef48b"/><path d="m105.977 295.437 46.365-38.854c3.214-2.693 8.11-.408 8.11 3.785v20.13h69.988c2.808 0 5.084 2.276 5.084 5.084v27.28c0 2.808-2.276 5.084-5.084 5.084h-69.988v20.13c0 4.193-4.896 6.478-8.11 3.785l-46.365-38.854c-2.355-1.974-2.355-5.596 0-7.57z" fill="#62dbfb"/><path d="m415.651 154.961-46.365-38.854c-3.214-2.693-8.11-.408-8.11 3.785v20.13h-69.988c-2.808 0-5.084 2.276-5.084 5.084v27.28c0 2.808 2.276 5.084 5.084 5.084h69.988v20.13c0 4.193 4.896 6.478 8.11 3.785l46.365-38.854c2.355-1.974 2.355-5.596 0-7.57z" fill="#fe646f"/></g></svg>